<?xml version="1.0" standalone="no"?>
<!DOCTYPE svg PUBLIC "-//W3C//DTD SVG 20010904//EN"
 "http://www.w3.org/TR/2001/REC-SVG-20010904/DTD/svg10.dtd">
<svg version="1.0" xmlns="http://www.w3.org/2000/svg"
 width="921.000000pt" height="2048.000000pt" viewBox="0 0 921.000000 2048.000000"
 preserveAspectRatio="xMidYMid meet">

<g transform="translate(0.000000,2048.000000) scale(0.100000,-0.100000)"
fill="#000000" stroke="none">
<path d="M0 10240 l0 -10240 4605 0 4605 0 0 1229 c0 1131 -1 1231 -17 1246
-9 9 -27 21 -41 26 -14 5 -22 13 -18 17 8 7 13 8 42 11 19 1 8 21 -12 21 -8 0
-12 -4 -9 -10 3 -5 0 -7 -8 -4 -7 2 -14 11 -14 18 0 8 6 12 14 9 9 -4 13 4 13
28 l-1 34 -15 -25 -15 -25 4 32 c3 27 0 33 -15 33 -10 0 -18 -4 -18 -10 0 -5
4 -10 9 -10 19 0 6 -37 -16 -47 -13 -6 -20 -7 -17 -2 3 5 -3 12 -13 16 -10 4
-21 11 -24 16 -10 15 -39 0 -33 -17 6 -17 -12 -31 -21 -16 -4 6 -1 18 7 27 11
15 11 16 -5 10 -10 -4 -21 -7 -23 -7 -2 0 -4 -8 -4 -17 0 -13 -3 -14 -12 -5
-8 8 -8 15 0 25 9 10 9 16 0 25 -17 17 12 15 35 -2 16 -12 22 -12 47 2 16 9
26 20 23 25 -3 5 -10 3 -15 -4 -7 -10 -11 -11 -14 -2 -3 7 -18 10 -38 6 -46
-7 -88 20 -77 50 11 28 -4 67 -24 67 -18 0 -20 16 -2 23 9 4 9 7 -1 15 -7 5
-10 16 -6 27 6 14 4 16 -6 10 -10 -6 -12 -3 -8 13 3 12 0 26 -7 32 -15 12 -9
44 6 35 4 -3 13 3 19 14 7 13 16 18 28 14 14 -5 15 -3 5 7 -9 10 -16 10 -25 2
-11 -8 -17 -6 -28 11 -8 12 -13 26 -12 31 2 5 -3 5 -10 -1 -10 -9 -14 -1 -16
40 -2 28 -8 57 -14 64 -8 9 -7 13 2 13 7 0 10 7 6 15 -3 8 -2 15 2 15 15 0 35
61 24 72 -8 8 -13 7 -18 -5 -8 -21 -20 -22 -28 -1 -3 8 -2 12 4 9 6 -4 10 8
10 27 l1 33 15 -25 15 -25 -5 34 c-3 18 -6 42 -6 52 0 12 -5 16 -15 13 -8 -4
-15 -12 -15 -20 0 -7 -9 -18 -19 -24 -31 -16 -32 -12 -6 15 29 28 31 43 10 51
-8 4 -12 10 -9 15 3 6 0 17 -7 25 -10 12 -9 13 5 8 9 -3 16 -13 16 -20 0 -12
4 -12 21 -4 11 7 18 14 15 17 -3 4 -1 12 5 20 9 10 7 13 -10 13 -11 0 -21 -5
-21 -11 0 -5 -5 -7 -10 -4 -6 4 -8 10 -5 15 9 14 -26 61 -39 53 -7 -4 -6 -1 1
7 10 11 16 11 30 -3 17 -14 23 -17 39 -17 4 0 1 -7 -6 -15 -10 -12 -9 -15 5
-15 14 0 16 5 10 28 -3 15 -13 31 -21 35 -8 5 -12 13 -8 18 3 5 0 8 -8 7 -9
-2 -13 9 -14 33 0 20 -8 46 -17 60 -18 25 -22 55 -8 63 4 3 6 -6 3 -19 -2 -15
0 -25 7 -25 6 0 11 10 11 23 0 18 2 19 10 7 6 -10 10 -11 10 -2 0 6 8 12 18
13 14 0 14 2 -3 9 -11 5 -14 9 -7 9 6 1 12 10 12 21 0 13 10 22 32 29 74 22
214 80 312 131 l51 27 3 1999 c3 2222 7 2067 -66 2289 -22 67 -43 143 -47 170
-16 107 -62 168 -192 256 -40 27 -76 55 -80 62 -20 32 -273 202 -428 288 -44
24 -98 54 -120 66 -67 39 -219 111 -281 134 -49 18 -165 50 -371 100 -38 9
-45 16 -67 65 -14 30 -30 82 -37 117 -6 34 -18 72 -25 84 -8 12 -14 29 -14 37
0 15 -9 36 -59 133 -24 47 -28 63 -17 63 8 0 23 -12 34 -27 11 -16 23 -25 27
-21 4 4 -5 19 -19 33 -14 14 -26 30 -26 35 0 4 -16 18 -35 30 -19 12 -35 30
-35 40 0 10 -14 31 -30 47 -47 46 -84 128 -42 93 8 -7 9 -7 3 1 -5 6 -7 18 -4
25 3 8 0 14 -6 14 -6 0 -11 6 -11 14 0 8 -38 50 -85 93 -47 43 -85 84 -85 91
0 13 -80 102 -92 102 -12 0 -98 61 -98 70 0 5 -9 12 -20 15 -31 10 -24 26 8
19 20 -5 24 -4 17 5 -6 6 -26 13 -45 15 -27 3 -46 17 -88 62 -29 33 -55 70
-59 84 -9 34 -44 80 -60 80 -8 0 -20 15 -28 33 -8 19 -21 40 -30 47 -9 7 -22
28 -30 46 -8 19 -32 50 -54 71 -39 36 -50 53 -33 53 9 0 93 -77 92 -85 0 -5
13 -6 18 0 2 1 -22 28 -52 60 -31 31 -56 61 -56 65 0 5 -19 25 -42 45 l-43 37
39 -16 c22 -9 41 -14 43 -12 7 7 -79 54 -112 62 -16 3 -42 19 -57 35 -32 34
-35 31 -76 -71 -25 -62 -33 -104 -47 -240 -8 -91 -22 -214 -30 -275 -43 -328
-70 -582 -80 -770 -4 -60 -11 -144 -15 -185 -32 -267 -41 -329 -53 -360 -16
-43 -70 -123 -116 -170 -19 -19 -55 -60 -79 -90 -25 -30 -48 -57 -52 -60 -4
-3 -11 -12 -16 -21 -13 -24 -83 -108 -120 -144 -105 -104 -169 -152 -256 -190
-20 -9 -39 -22 -41 -30 -5 -11 -80 -32 -83 -23 -1 1 -10 -4 -20 -13 -11 -8
-38 -21 -61 -28 -24 -6 -43 -16 -43 -21 0 -11 -39 -25 -62 -21 -11 1 -18 -4
-18 -13 0 -9 -5 -16 -11 -16 -5 0 -8 4 -5 8 6 10 -93 -9 -111 -21 -7 -5 -17
-6 -22 -2 -5 3 -12 1 -16 -4 -3 -7 -15 -7 -30 -1 -15 6 -27 6 -30 0 -4 -7 -13
-6 -26 0 -10 6 -19 8 -19 5 0 -3 -8 3 -18 13 -11 9 -18 19 -16 22 5 10 -11 25
-39 38 -23 10 -26 16 -21 37 5 19 0 32 -17 51 l-22 24 24 1 c17 1 19 3 7 6
-10 2 -18 11 -18 19 0 8 -5 12 -11 8 -13 -8 -9 45 4 64 5 6 6 12 2 12 -4 0 -1
8 6 17 8 9 9 14 3 10 -11 -7 -28 32 -19 42 3 2 5 -1 5 -7 0 -7 6 -12 13 -12 8
0 14 7 14 15 0 8 -4 15 -9 15 -4 0 -8 7 -8 16 0 8 -4 13 -8 10 -5 -3 -9 1 -9
9 0 8 4 12 8 9 4 -2 11 1 15 8 4 7 4 10 -1 6 -4 -4 -14 0 -22 10 -8 11 -12 12
-11 3 2 -7 -3 -16 -10 -18 -6 -3 -12 3 -12 12 0 9 9 19 20 22 19 5 29 33 11
33 -14 0 -21 29 -9 36 6 4 8 3 4 -4 -3 -6 -1 -14 5 -17 7 -5 9 2 7 21 -2 15
-10 29 -18 31 -12 4 -12 3 -2 -5 11 -7 11 -10 -3 -15 -9 -4 -13 -3 -10 2 3 5
1 12 -4 15 -5 4 -8 14 -6 24 1 9 -4 25 -13 35 -18 20 -12 30 12 21 12 -5 14
-9 6 -14 -8 -5 -6 -11 5 -20 13 -10 15 -9 15 6 0 16 2 17 10 4 6 -9 10 -10 10
-3 0 6 -4 14 -10 18 -12 8 -2 32 16 39 9 3 12 1 9 -4 -3 -6 -4 -10 -1 -10 3 0
13 12 21 28 10 16 14 19 11 7 -6 -19 -5 -19 7 -3 8 10 16 16 18 13 3 -2 5 4 5
15 0 15 -3 17 -15 7 -12 -9 -13 -9 -7 0 4 8 2 13 -6 13 -10 0 -9 3 2 9 8 6 18
7 22 5 4 -3 8 2 8 11 0 10 -4 13 -12 8 -24 -14 -35 -11 -33 10 2 21 34 34 36
14 1 -7 4 -1 8 13 5 14 3 31 -3 39 -8 11 -8 13 2 7 6 -4 12 -3 12 1 0 5 7 18
16 29 8 10 12 12 9 4 -4 -8 6 0 23 19 17 19 31 37 30 40 -2 19 4 22 19 10 9
-8 14 -9 11 -4 -5 9 42 64 49 58 2 -2 2 0 1 5 -2 4 -6 6 -10 5 -4 -2 -2 11 4
28 8 24 7 33 -7 49 -10 11 -15 26 -12 35 4 8 2 15 -4 15 -27 0 -39 30 -40 108
-1 70 1 83 20 104 19 19 20 24 6 26 -12 3 -11 8 9 23 16 13 23 26 19 36 -4 11
-3 14 5 9 7 -4 12 -2 12 4 0 6 5 8 12 4 7 -5 8 -3 3 6 -4 7 -2 16 6 21 8 5 17
3 21 -4 5 -8 8 -5 9 8 2 34 -2 49 -19 62 -10 7 -12 13 -6 13 6 0 26 13 45 29
18 16 49 32 69 34 80 11 164 36 172 51 5 9 19 17 31 17 17 1 18 2 5 6 -10 2
-18 9 -18 14 0 5 -11 7 -25 5 -17 -3 -26 1 -30 15 -4 10 -13 19 -21 19 -9 0
-23 18 -31 40 -14 34 -18 38 -31 27 -9 -6 -13 -7 -9 -1 7 13 -27 67 -37 57 -4
-4 -4 1 0 11 5 12 4 17 -3 13 -5 -3 -10 0 -10 8 0 8 4 12 9 9 4 -3 8 1 8 8 0
7 -9 19 -20 26 -12 7 -18 17 -15 22 9 15 -46 95 -58 83 -3 -3 -9 6 -13 21 -3
14 -10 26 -14 26 -5 0 -11 8 -13 18 -4 16 -5 16 -6 0 0 -10 -5 -18 -11 -18 -5
0 -10 -7 -10 -16 0 -8 -5 -12 -10 -9 -6 4 -13 -7 -16 -24 -4 -17 -10 -31 -13
-31 -4 0 -6 -23 -5 -52 1 -28 -2 -62 -7 -75 -5 -15 -5 -23 2 -23 6 0 7 -5 4
-10 -4 -6 -11 -8 -16 -5 -5 4 -9 2 -9 -4 0 -5 -8 -8 -17 -6 -10 1 -17 8 -15
15 1 6 -3 10 -10 8 -7 -3 -21 8 -31 25 -14 22 -15 32 -6 43 8 10 8 14 0 14 -6
0 -11 8 -11 19 0 10 -6 24 -13 30 -20 16 -9 65 24 101 16 17 27 36 24 41 -4 5
-3 14 1 21 5 8 10 6 15 -8 7 -18 8 -18 15 4 8 26 8 26 39 6 13 -8 37 -17 54
-19 28 -4 33 0 46 31 12 30 18 34 41 30 14 -3 24 -2 20 1 -3 3 -1 12 5 20 9
10 8 13 -1 13 -10 0 -10 3 0 15 11 13 10 14 -3 9 -15 -5 -18 9 -6 31 3 6 5 17
4 25 0 8 6 22 15 30 15 15 23 73 8 64 -22 -14 -48 -10 -66 9 -25 28 -25 56 0
52 10 -2 17 -1 14 3 -2 4 2 13 10 20 8 7 14 8 14 3 0 -6 7 -8 15 -5 8 4 15 12
15 20 0 8 10 14 24 14 29 0 44 18 22 26 -22 9 -20 24 3 24 24 0 36 16 20 26
-8 5 -10 2 -5 -7 4 -8 0 -5 -8 5 -11 13 -16 15 -16 6 0 -20 -14 -3 -15 20 -1
16 1 18 14 8 13 -10 13 -9 0 6 -10 10 -30 19 -46 19 -16 1 -30 7 -30 14 0 7 4
10 8 7 4 -2 10 0 14 5 3 5 14 8 25 6 13 -3 18 0 14 7 -5 7 -2 9 9 5 12 -4 14
-2 10 10 -4 10 -2 14 4 10 5 -3 20 5 32 19 12 14 27 22 33 18 7 -5 8 -3 4 5
-10 16 22 51 40 44 8 -3 11 -10 7 -16 -3 -6 -1 -7 6 -3 6 4 8 12 5 18 -5 7 2
9 20 6 14 -3 29 -1 33 5 3 5 1 7 -5 3 -6 -3 -13 -2 -17 4 -6 10 -3 11 33 14
11 0 27 8 36 16 26 21 49 22 42 2 -5 -15 -4 -15 8 1 15 20 30 23 21 5 -4 -7 1
-4 9 6 9 11 19 16 23 12 4 -4 3 -10 -3 -14 -6 -4 -10 -17 -10 -29 0 -17 3 -19
13 -11 7 6 10 15 6 22 -3 6 0 6 8 -1 19 -18 47 -16 83 6 32 20 35 21 61 21 25
0 65 52 63 82 -1 17 -6 24 -11 19 -5 -5 -15 -7 -23 -4 -7 3 -29 0 -49 -7 -20
-6 -55 -14 -77 -17 -23 -2 -45 -6 -49 -9 -4 -2 -11 1 -15 7 -5 9 -11 7 -21 -6
-8 -12 -13 -14 -13 -6 0 11 -3 11 -17 0 -9 -8 -14 -9 -10 -3 8 14 -52 11 -80
-4 -14 -8 -24 -9 -28 -2 -6 10 1 14 20 10 6 -1 5 4 -2 11 -15 15 -47 4 -37
-13 4 -7 -1 -5 -12 4 -19 17 -21 17 -38 0 -9 -9 -16 -12 -15 -7 4 22 -2 27
-18 14 -15 -13 -15 -12 -3 11 12 23 12 24 -4 11 -9 -8 -16 -10 -14 -4 2 6 -1
12 -7 13 -5 1 -20 6 -31 10 -13 5 -26 4 -33 -3 -8 -8 -11 -8 -11 1 0 8 -7 9
-25 2 -16 -6 -25 -6 -25 0 0 6 8 10 17 10 14 0 15 2 4 13 -10 10 -15 9 -24 -3
-15 -19 -39 -20 -45 -1 -3 10 0 12 11 8 9 -3 19 -1 23 5 5 7 2 8 -7 3 -8 -5
-5 1 5 13 11 12 27 22 37 22 11 0 24 9 31 20 7 11 18 20 25 20 22 0 14 38 -13
64 -19 17 -25 31 -21 45 4 16 0 21 -14 21 -10 0 -19 6 -19 14 0 19 -29 48 -41
41 -5 -4 -9 1 -9 9 0 8 -9 18 -20 21 -25 8 -26 33 -3 51 16 12 15 13 -15 14
-39 0 -87 31 -95 60 -3 11 -1 20 4 20 6 0 7 23 3 58 -7 66 -10 72 -30 72 -20
0 -17 20 4 21 11 0 7 4 -10 11 -16 5 -28 14 -28 19 0 6 -5 7 -10 4 -5 -3 -10
0 -10 9 0 8 -6 17 -12 19 -10 4 -10 6 0 6 10 1 9 8 -3 31 -14 28 -14 31 4 49
13 13 16 21 8 25 -9 3 -8 8 3 15 10 7 11 11 3 11 -18 0 -17 75 2 90 8 6 19 9
24 6 6 -4 8 6 6 24 -2 17 0 28 5 25 5 -3 9 10 8 30 -1 19 -4 35 -8 35 -12 0
-18 36 -10 50 4 7 12 10 17 7 5 -3 10 0 10 8 0 8 -5 15 -10 15 -6 0 -2 9 8 20
13 14 16 28 11 54 -4 20 -2 37 4 41 5 3 10 1 10 -4 0 -6 4 -11 8 -11 4 0 5 27
2 60 -4 38 -2 60 5 60 11 0 15 27 18 133 1 46 7 71 16 77 12 7 12 11 2 24 -19
23 -10 60 17 64 13 2 22 -2 23 -10 0 -7 4 -4 9 7 8 18 9 17 9 -7 1 -23 6 -28
26 -28 18 0 25 5 25 19 0 11 -4 23 -10 26 -5 3 -10 -3 -10 -15 0 -12 -4 -19
-9 -16 -4 3 -6 17 -4 31 4 17 0 27 -11 31 -30 12 -16 24 27 23 60 0 109 -20
124 -49 14 -27 18 -94 6 -87 -5 3 -27 2 -51 -2 l-44 -6 26 -38 c15 -21 40 -73
56 -116 35 -90 119 -256 161 -317 21 -30 47 -51 103 -78 41 -20 89 -41 108
-47 238 -71 620 -46 773 49 55 34 108 103 150 195 34 76 80 237 91 325 4 35
11 52 21 52 7 0 17 10 22 23 11 29 76 97 93 97 7 1 -1 7 -18 14 -28 12 -32 19
-32 51 0 22 5 38 14 41 47 14 49 17 19 24 -16 3 -39 2 -50 -4 -11 -6 -24 -10
-30 -11 -5 0 -10 -8 -11 -18 -1 -12 -1 -13 3 -2 9 29 23 4 23 -41 0 -38 4 -46
25 -56 18 -8 22 -14 13 -19 -7 -4 -18 -3 -25 3 -9 7 -13 7 -13 -1 0 -6 -4 -11
-10 -11 -5 0 -10 11 -10 24 0 93 -69 149 -235 190 l-90 23 93 -1 c57 -1 91 -5
88 -11 -2 -5 12 -11 30 -12 19 -1 34 2 34 7 0 12 -46 22 -115 26 -52 3 -198
28 -275 48 -14 4 -54 9 -89 12 -38 3 -69 11 -79 20 -10 10 -17 12 -21 5 -7
-11 -41 -8 -62 4 -7 5 -7 11 1 20 9 11 6 13 -15 11 -20 -3 -27 2 -31 21 -4 14
-12 22 -20 19 -16 -6 -39 20 -24 29 5 3 10 10 10 15 0 9 -19 8 -35 -2 -6 -3
-18 0 -28 7 -17 12 -16 13 1 17 11 3 26 2 34 -3 8 -5 25 -2 41 6 15 8 28 12
28 9 1 -2 2 -8 3 -13 2 -20 15 -21 47 -3 39 21 209 39 209 22 0 -5 -12 -10
-27 -10 -16 0 -34 -4 -42 -9 -8 -5 25 -7 80 -4 147 7 149 7 162 -7 10 -10 7
-11 -10 -5 -14 4 -23 2 -23 -4 0 -6 7 -11 15 -11 9 0 18 -6 21 -14 6 -15 44
-18 44 -4 0 8 46 1 65 -11 6 -3 -3 -9 -20 -12 -26 -6 -23 -7 17 -8 26 0 49 3
52 8 3 4 -10 26 -29 48 -19 22 -32 43 -29 45 3 3 -7 8 -21 12 -14 4 -25 12
-25 19 0 16 -35 48 -73 67 -15 7 -53 40 -85 72 -56 57 -58 58 -89 46 -24 -9
-38 -9 -57 0 -21 9 -27 9 -35 -6 -7 -13 -13 -14 -22 -5 -6 6 -17 9 -24 7 -7
-3 -16 -1 -19 4 -8 13 -76 3 -93 -13 -12 -13 -57 -9 -49 4 2 3 -11 6 -29 6
-26 0 -31 -3 -23 -12 6 -7 18 -13 26 -13 12 0 13 -3 4 -12 -9 -9 -23 -6 -62
15 -49 27 -78 28 -64 4 4 -7 3 -9 -1 -4 -5 4 -19 0 -33 -9 -16 -11 -27 -13
-34 -6 -7 7 -19 7 -37 0 -14 -6 -39 -10 -55 -9 -30 2 -70 -25 -60 -40 3 -5 0
-9 -6 -9 -7 0 -14 9 -17 21 -4 12 -11 18 -20 15 -8 -3 -17 -6 -19 -6 -2 0 -4
-7 -4 -15 0 -8 -12 -22 -26 -32 -25 -16 -27 -16 -36 0 -8 16 -11 16 -31 2 -21
-15 -33 -75 -14 -75 13 0 8 -30 -5 -30 -7 -1 -2 -10 12 -21 14 -12 25 -25 25
-30 0 -13 27 -29 37 -23 4 3 17 0 29 -7 18 -9 24 -8 31 5 6 11 14 14 21 8 14
-10 27 -10 44 1 7 4 21 2 32 -5 17 -11 23 -10 34 6 8 11 19 16 25 12 12 -7 12
-46 -1 -46 -4 0 -5 -4 -2 -10 3 -5 2 -10 -4 -10 -5 0 -12 8 -14 18 -4 16 -5
16 -6 0 -1 -17 -16 -22 -53 -19 -11 2 -20 -7 -24 -24 -3 -14 -26 -45 -49 -70
-24 -24 -46 -53 -50 -64 -3 -11 -32 -38 -63 -61 -49 -34 -64 -40 -107 -40 -71
1 -131 14 -150 34 -15 15 -15 16 0 16 9 0 13 5 9 11 -3 6 -1 21 6 34 18 33 7
55 -22 47 -20 -5 -21 -3 -10 10 7 9 11 27 8 40 -3 12 -7 50 -10 83 -6 80 -15
115 -31 115 -8 0 -11 8 -8 19 5 21 -33 55 -50 44 -6 -3 -7 -1 -3 5 4 6 14 8
24 5 13 -5 11 0 -6 19 -15 17 -30 24 -43 21 -10 -3 -19 0 -19 6 0 6 -9 20 -20
31 -12 12 -18 26 -14 32 4 7 3 8 -5 4 -6 -4 -8 -13 -4 -19 4 -7 0 -6 -10 2 -9
7 -17 10 -17 7 0 -4 -9 -2 -21 4 -12 7 -18 18 -15 26 4 11 0 13 -19 8 -18 -4
-27 -1 -31 10 -3 9 -12 16 -19 16 -9 0 -12 10 -9 29 4 23 0 32 -15 41 -17 9
-20 8 -15 -5 11 -27 -4 -16 -19 14 -13 27 -13 31 2 45 21 19 35 21 25 4 -5
-10 -4 -10 6 -1 20 18 21 43 3 43 -13 0 -13 -3 -2 -17 13 -17 13 -17 -7 0 -11
9 -24 14 -27 10 -4 -3 -7 -1 -7 5 0 7 11 12 25 12 17 0 23 4 19 14 -4 10 0 14
13 12 25 -4 32 11 22 46 -6 22 -4 30 7 35 11 4 13 14 9 33 -4 16 -1 31 5 35 6
4 2 13 -12 25 l-23 18 29 -5 c20 -4 27 -2 22 6 -4 6 -1 11 9 11 12 0 13 -4 6
-18 -7 -14 -6 -18 9 -18 10 0 18 3 18 6 -3 16 15 59 23 54 5 -3 6 2 2 12 -5
15 -7 15 -15 0 -6 -11 -14 -14 -26 -7 -9 4 -23 7 -30 5 -7 -1 -8 0 -2 3 5 2 8
9 4 14 -3 5 0 8 7 7 7 -2 14 7 15 19 1 13 6 28 11 35 14 17 13 50 -1 45 -6 -3
-10 -11 -8 -18 2 -8 0 -11 -4 -7 -4 4 -12 2 -18 -5 -6 -7 -10 -10 -9 -8 2 2
-2 10 -7 17 -8 9 -6 12 7 10 10 0 17 5 15 12 -1 6 1 11 5 11 20 -3 34 2 28 10
-3 5 -1 12 5 16 6 4 8 11 4 16 -3 5 0 8 7 7 6 -2 14 3 17 11 2 8 0 11 -5 8 -5
-3 -10 0 -10 8 0 8 4 12 9 9 4 -3 8 0 8 5 0 6 -5 11 -12 11 -6 0 -8 3 -5 7 4
3 2 12 -4 19 -8 9 -5 16 12 24 12 7 19 8 15 2 -3 -5 1 -13 10 -16 24 -9 31 -7
14 4 -13 9 -12 12 4 25 18 14 15 20 -8 16 -5 -1 -3 5 4 14 11 14 11 16 -1 13
-8 -2 -17 -7 -20 -12 -4 -4 -10 -3 -13 3 -4 6 -2 11 3 11 6 0 11 8 11 19 0 10
7 24 15 31 13 11 14 10 9 -4 -3 -9 -1 -16 5 -16 6 0 11 11 11 24 0 14 4 28 10
31 12 8 13 45 1 45 -5 0 -11 9 -14 20 -3 13 -11 18 -26 15 -11 -2 -23 1 -27 6
-3 5 -1 8 5 7 5 -2 17 6 25 17 13 16 15 17 10 3 -6 -18 10 -25 20 -10 7 12 59
8 63 -4 2 -5 -8 -10 -22 -10 -14 0 -25 5 -25 10 0 6 -4 6 -10 0 -12 -12 -3
-44 11 -44 5 0 9 7 9 16 0 12 3 14 13 6 17 -15 39 1 35 24 -2 10 2 18 8 17 6
-1 11 4 11 11 0 7 -6 13 -13 13 -7 0 -10 -5 -7 -11 3 -6 3 -8 -2 -4 -4 4 -14
3 -22 -3 -7 -6 -13 -7 -13 -3 0 9 41 39 50 37 3 -1 5 8 6 20 0 12 2 28 5 36 2
7 -2 16 -8 18 -9 3 -13 -7 -13 -32 0 -33 -2 -35 -27 -32 -15 2 -29 10 -31 18
-2 8 0 10 5 4 4 -5 15 -11 25 -13 12 -2 16 5 14 28 -1 16 1 30 5 30 4 0 9 8
11 18 6 21 -9 46 -32 55 -8 3 -3 5 11 4 16 -1 26 -7 25 -15 -1 -8 7 -16 17
-17 9 -2 17 2 17 8 0 5 3 7 7 3 4 -4 8 -15 8 -24 0 -11 10 -17 28 -19 24 -2
27 1 23 23 -3 13 0 24 5 24 6 0 7 6 2 13 -4 6 -9 21 -10 32 -3 17 -1 18 8 5 9
-12 10 -10 6 8 -3 13 -3 21 0 18 4 -3 15 2 26 11 12 11 17 12 12 4 -5 -10 -4
-12 3 -7 7 4 12 14 12 22 0 16 34 16 59 0 10 -6 12 -5 7 2 -4 7 -2 12 4 12 6
0 9 4 6 9 -3 5 1 14 9 21 8 7 15 9 15 5 0 -4 7 -2 15 5 8 6 19 9 25 5 5 -3 10
1 10 9 0 21 18 30 34 17 7 -6 21 -9 30 -5 10 4 16 1 16 -9 0 -8 7 -20 15 -27
8 -7 12 -17 8 -23 -4 -6 -1 -7 6 -3 9 6 9 12 -3 25 -9 10 -13 21 -9 24 10 10
25 8 19 -2 -4 -5 5 -4 18 2 16 8 21 16 15 23 -5 7 -4 11 6 11 8 0 12 -4 10 -8
-10 -14 46 -30 56 -16 8 12 65 -7 62 -20 -1 -5 8 -9 20 -8 12 1 33 -4 46 -11
20 -10 27 -11 33 -1 6 9 8 8 9 -3 1 -8 1 -19 0 -23 -1 -5 4 -5 10 -1 6 3 22
-6 35 -21 13 -16 24 -25 24 -20 0 4 6 2 13 -4 8 -6 17 -8 20 -4 4 3 7 1 7 -6
0 -7 4 -9 10 -6 5 3 10 1 10 -6 0 -7 3 -10 6 -6 4 3 20 -1 36 -9 16 -8 33 -12
38 -9 5 3 14 -4 20 -15 9 -17 17 -20 41 -15 25 6 31 3 36 -13 4 -17 11 -19 46
-14 37 5 41 3 29 -10 -9 -11 -10 -18 -2 -23 5 -3 10 -1 10 6 0 8 4 9 13 0 10
-8 17 -7 27 2 7 6 10 7 7 1 -4 -6 6 -17 20 -25 15 -8 46 -34 70 -59 26 -27 41
-37 36 -25 -3 11 -11 23 -17 27 -15 10 -2 20 18 12 9 -3 13 -10 10 -15 -3 -5
2 -9 11 -9 11 0 15 -5 12 -15 -4 -8 -2 -17 4 -20 5 -4 9 -3 8 2 -7 42 10 42
39 -1 15 -22 29 -33 38 -29 8 3 14 1 12 -4 -2 -5 12 -24 30 -42 18 -19 36 -46
39 -61 3 -17 14 -31 27 -35 13 -4 16 -8 9 -11 -9 -4 -10 -11 -4 -23 6 -10 8
-44 6 -77 -2 -33 1 -62 7 -65 6 -4 7 -20 3 -39 -5 -24 -10 -29 -16 -19 -5 8
-9 10 -10 4 0 -5 -2 -18 -4 -28 -2 -13 0 -15 9 -8 8 7 12 4 13 -11 3 -35 43
-109 55 -102 6 4 8 3 4 -4 -5 -8 -15 -8 -37 0 -41 14 -50 1 -17 -27 15 -13 25
-25 22 -28 -2 -2 2 -10 11 -17 11 -9 15 -9 15 -1 0 7 5 9 11 6 6 -5 4 -12 -8
-21 -10 -7 -13 -14 -6 -14 22 0 51 -40 45 -62 -3 -13 1 -24 11 -29 9 -6 13
-17 10 -29 -4 -14 0 -20 11 -20 17 0 76 -85 76 -111 0 -9 7 -22 15 -29 30 -25
58 -111 75 -227 12 -89 13 -373 1 -393 -6 -8 -7 -19 -3 -24 15 -24 14 -333 -2
-441 -21 -143 -33 -219 -45 -280 -33 -161 -39 -204 -34 -238 7 -44 13 -50 45
-38 12 5 27 9 31 9 16 1 46 44 40 58 -3 9 2 14 13 14 47 0 95 23 121 57 24 31
27 45 29 114 1 57 -2 79 -10 79 -7 0 -18 11 -26 24 -7 13 -21 27 -31 29 -11 3
-19 13 -19 22 0 9 -6 29 -14 43 -30 55 -36 92 -25 143 9 40 14 49 28 44 15 -4
16 2 13 61 -3 45 0 75 11 97 8 18 25 65 38 106 19 61 30 79 66 109 l43 36 0
108 c0 69 5 116 12 129 11 17 11 23 1 26 -7 3 -13 9 -13 15 0 6 7 7 16 4 13
-5 14 -2 8 11 -10 21 -17 166 -12 238 l4 50 18 -40 c10 -22 21 -67 23 -100 3
-33 8 -62 10 -65 3 -3 3 30 0 72 -4 56 -13 94 -35 140 -39 83 -55 157 -53 241
2 52 -2 75 -18 100 -10 18 -34 75 -51 127 -18 52 -58 149 -91 214 -32 66 -59
126 -59 133 0 16 -13 33 -52 70 -32 30 -81 130 -74 149 3 8 0 14 -7 14 -24 1
-120 172 -131 235 -6 32 -16 46 -16 22 0 -10 -4 -17 -10 -17 -5 0 -10 5 -10
10 0 14 -55 70 -69 70 -6 0 -11 5 -11 11 0 13 -72 82 -126 119 -22 16 -73 41
-113 57 -50 19 -90 43 -125 76 -72 67 -86 80 -126 109 -61 46 -127 76 -153 71
-18 -4 -31 2 -43 16 -13 14 -30 21 -55 21 -21 0 -42 7 -49 16 -10 11 -23 14
-49 9 -31 -5 -40 -2 -59 20 -19 22 -29 25 -66 21 -25 -2 -48 -1 -51 3 -4 3
-26 7 -48 8 -23 1 -61 5 -83 8 -29 5 -51 2 -73 -9 -23 -12 -57 -17 -129 -16
-120 1 -175 -5 -215 -25 -16 -8 -36 -15 -44 -15 -7 0 -13 -5 -13 -11 0 -7 -16
-9 -49 -4 -45 6 -53 4 -99 -29 -27 -19 -68 -40 -91 -46 -22 -6 -43 -15 -46
-20 -3 -5 -27 -20 -53 -34 -236 -120 -317 -156 -350 -156 -23 0 -137 -56 -170
-83 -82 -68 -200 -200 -208 -234 -4 -12 -12 -23 -20 -23 -8 0 -14 -9 -14 -21
0 -11 -4 -18 -9 -14 -6 3 -14 -14 -18 -37 -7 -33 -13 -43 -28 -43 -14 0 -21
-8 -23 -27 -2 -18 -14 -34 -33 -45 -16 -10 -31 -25 -34 -34 -7 -21 -28 -30
-45 -19 -11 7 -11 11 -1 23 10 13 8 16 -8 22 -32 10 -38 0 -33 -55 4 -46 3
-52 -17 -57 -18 -5 -21 -11 -16 -31 14 -57 17 -87 6 -72 -9 13 -12 12 -25 -5
-13 -18 -13 -20 5 -23 38 -6 21 -29 -21 -28 -39 1 -52 10 -28 19 7 3 2 6 -11
6 -19 1 -22 -3 -17 -21 3 -13 6 -27 6 -33 0 -5 5 -3 10 5 8 13 10 12 10 -2 0
-10 5 -18 11 -18 5 0 7 -5 3 -11 -4 -8 -9 -7 -16 2 -7 10 -8 7 -4 -11 3 -14 6
-31 6 -38 0 -7 5 -10 10 -7 5 3 10 3 10 -1 0 -12 -34 -33 -53 -34 -10 0 -31
-7 -47 -15 -23 -12 -30 -22 -30 -45 0 -34 6 -37 31 -14 12 11 27 14 44 10 30
-8 28 -32 -3 -29 -13 2 -22 -5 -25 -18 -5 -19 -7 -19 -30 -5 -16 11 -34 14
-56 10 -23 -5 -37 -2 -51 11 -19 17 -50 15 -50 -4 0 -6 11 -13 25 -17 26 -6
32 -18 15 -29 -12 -7 -13 -25 -2 -25 5 0 18 9 30 20 12 11 27 20 35 20 7 0 18
5 24 11 17 17 44 -17 37 -47 -5 -19 -3 -23 10 -18 9 3 16 1 16 -4 0 -6 -20
-14 -45 -18 -34 -5 -43 -9 -36 -18 8 -9 2 -12 -24 -10 -40 4 -50 -7 -34 -37 9
-17 8 -23 -2 -31 -18 -11 -101 0 -114 15 -22 26 -50 17 -75 -23 -17 -28 -31
-40 -47 -40 -20 0 -23 -5 -23 -40 l0 -41 -35 7 c-31 6 -36 3 -45 -21 -7 -19
-15 -25 -26 -21 -65 25 -86 11 -39 -26 14 -11 25 -27 26 -36 0 -14 2 -13 9 3
8 18 9 17 9 -8 1 -16 -4 -26 -11 -25 -6 2 -14 -5 -16 -14 -3 -14 3 -18 27 -18
23 0 30 -5 33 -22 4 -30 32 -34 57 -9 25 25 30 26 47 4 18 -24 17 -34 -1 -27
-9 4 -15 0 -15 -10 0 -9 -7 -16 -15 -16 -15 0 -19 -11 -16 -38 1 -8 -8 -22
-20 -33 -23 -20 -44 -26 -34 -9 3 6 -1 7 -9 4 -21 -8 -20 -24 1 -39 9 -7 14
-19 10 -29 -10 -25 -27 -19 -41 15 -9 21 -16 28 -21 19 -4 -7 -2 -16 5 -20 10
-6 9 -9 0 -15 -8 -5 -18 -1 -26 10 -7 10 -20 15 -29 12 -8 -4 -15 -1 -15 6 0
7 -9 13 -19 13 -11 0 -17 -5 -14 -10 4 -5 -1 -7 -11 -3 -14 6 -17 3 -12 -8 4
-13 2 -14 -14 -5 -22 12 -38 -4 -22 -23 6 -7 12 -26 14 -42 3 -29 1 -30 -37
-30 -22 0 -45 -3 -52 -8 -6 -4 -14 -3 -18 3 -3 5 1 10 10 10 12 0 15 6 10 23
-4 14 -3 18 3 9 10 -15 46 -4 50 16 1 6 -1 11 -5 11 -28 -5 -45 2 -36 14 14
17 21 63 12 78 -4 7 -14 9 -25 4 -13 -5 -15 -9 -6 -12 6 -3 12 -11 12 -19 0
-9 -4 -13 -9 -10 -5 3 -8 -10 -7 -30 2 -47 -14 -70 -40 -57 -10 5 -42 9 -70 9
-44 -1 -54 -6 -83 -36 -18 -19 -30 -29 -26 -23 4 8 1 11 -9 7 -10 -4 -15 2
-18 17 -2 17 -12 25 -36 30 -34 7 -52 -5 -33 -24 15 -15 14 -27 -4 -27 -19 0
-19 -24 0 -40 22 -18 18 -37 -9 -55 -13 -9 -27 -27 -30 -41 -8 -31 -26 -31
-26 1 0 29 -39 59 -64 49 -12 -5 -16 0 -17 22 0 28 -1 28 -11 7 -6 -13 -19
-23 -28 -23 -9 0 -23 -11 -30 -25 -7 -13 -22 -27 -32 -31 -10 -3 -16 -10 -13
-15 4 -5 -3 -9 -14 -9 -12 0 -21 -5 -21 -11 0 -6 -12 -1 -26 10 -27 21 -65 16
-72 -10 -3 -11 -1 -11 7 1 9 12 11 11 11 -7 0 -17 -6 -23 -21 -23 -16 0 -20 5
-16 19 6 23 -27 59 -38 41 -3 -5 -11 -7 -17 -4 -7 4 -8 2 -4 -4 4 -7 1 -12 -6
-12 -8 0 -13 -13 -13 -37 1 -40 18 -52 53 -37 24 10 52 12 52 3 0 -4 -5 -9
-12 -11 -14 -5 -18 -49 -5 -65 16 -21 39 -16 32 7 -4 13 -2 20 7 21 32 3 53
-4 66 -22 14 -20 72 -27 72 -9 0 6 8 5 19 -2 15 -9 23 -9 36 2 13 11 18 11 24
1 5 -7 12 -12 17 -12 5 1 10 -16 12 -36 2 -38 2 -38 -13 -13 -8 14 -14 19 -15
11 0 -10 -3 -11 -13 -2 -16 13 -27 5 -27 -20 0 -9 -9 -19 -21 -22 -16 -4 -20
-12 -17 -36 1 -17 -1 -31 -6 -31 -5 0 -9 16 -10 35 -1 19 1 35 4 35 6 0 30 60
30 73 0 4 -4 7 -10 7 -5 0 -10 -8 -10 -18 0 -10 -7 -27 -15 -38 -11 -14 -14
-15 -9 -3 3 10 0 20 -7 25 -8 4 -10 3 -5 -4 4 -7 2 -12 -4 -12 -6 0 -9 -4 -5
-9 3 -5 1 -12 -4 -16 -6 -3 -8 3 -6 15 2 11 -1 23 -7 26 -7 4 -8 2 -4 -4 4 -7
2 -12 -4 -12 -6 0 -9 -4 -5 -9 3 -5 0 -13 -6 -17 -7 -4 -9 -3 -6 3 7 11 -12
33 -25 30 -3 -1 -9 1 -13 5 -8 8 16 5 31 -4 6 -4 11 -1 11 6 0 8 -7 13 -16 11
-9 -1 -22 2 -29 8 -7 6 -12 6 -10 1 4 -14 -38 -64 -54 -64 -8 0 -19 -5 -26
-12 -14 -14 -62 8 -62 29 0 8 -5 11 -10 8 -6 -4 -8 -11 -5 -16 4 -5 -8 -9 -24
-9 -17 0 -31 -4 -31 -10 0 -5 6 -10 14 -10 8 0 16 -6 19 -12 4 -10 7 -10 18 0
21 20 31 14 11 -7 -9 -11 -22 -26 -29 -34 -7 -9 -24 -13 -47 -10 -21 2 -36 -1
-36 -7 0 -5 -7 -10 -15 -10 -8 0 -15 4 -15 9 0 5 -3 16 -6 24 -3 9 12 33 38
61 38 39 51 47 91 50 44 4 49 3 57 -20 12 -30 17 -30 46 2 29 30 34 65 7 43
-14 -12 -16 -12 -11 2 5 13 1 15 -19 11 -17 -3 -29 1 -34 11 -5 9 -19 14 -34
12 -22 -2 -25 2 -26 29 0 29 -1 29 -9 9 -12 -28 -24 -30 -17 -3 3 13 0 20 -9
20 -8 0 -14 -7 -14 -15 0 -8 -7 -15 -15 -15 -8 0 -15 -6 -15 -12 0 -9 -3 -9
-9 1 -12 19 -81 42 -81 27 0 -6 -5 -4 -10 6 -6 10 -18 14 -31 11 -18 -5 -20
-3 -15 14 4 11 2 31 -3 44 -7 17 -10 19 -10 7 -1 -22 -24 -23 -45 -3 -8 8 -19
15 -25 15 -6 0 -11 5 -11 12 0 6 -10 -1 -23 -15 -26 -31 -33 -33 -41 -12 -7
19 3 47 15 39 5 -3 12 8 15 25 7 34 34 43 34 11 0 -24 10 -25 36 -4 13 11 15
17 7 20 -7 3 -13 12 -13 20 0 8 -7 14 -15 14 -25 0 -17 30 8 31 20 1 21 1 2 7
-25 9 -34 62 -10 62 9 0 15 -9 15 -22 0 -26 17 -13 22 16 2 14 -4 22 -22 27
-14 4 -20 7 -14 8 7 1 10 17 8 41 -2 26 1 40 8 40 9 0 9 3 0 12 -7 7 -12 26
-12 43 0 18 -3 34 -6 37 -8 9 -45 -3 -39 -12 3 -5 -6 -3 -20 3 -13 7 -27 23
-30 36 -5 18 -9 21 -18 12 -17 -17 -27 -13 -24 12 2 17 -3 22 -23 22 -18 0
-26 6 -28 23 -4 28 -25 24 -27 -5 -3 -45 -55 -93 -55 -52 0 6 5 7 12 3 7 -5 9
-1 6 13 -4 15 -1 20 11 19 12 -1 16 8 16 38 0 24 5 41 14 44 9 3 11 0 6 -8 -6
-10 -4 -12 8 -7 9 3 19 1 23 -4 3 -6 15 -9 25 -6 23 6 94 -18 94 -32 0 -14 20
-15 21 -1 3 23 5 24 14 10 5 -8 10 -10 10 -4 0 18 -24 42 -50 49 -19 5 -21 4
-10 -4 12 -9 11 -11 -7 -11 -29 0 -42 39 -19 55 9 7 16 17 16 22 0 6 7 16 15
23 18 15 19 30 2 30 -18 0 -40 37 -25 42 6 2 8 9 4 16 -5 8 -12 6 -26 -5 -12
-11 -16 -19 -9 -24 6 -3 10 -9 10 -13 -3 -20 0 -26 9 -21 12 7 13 -15 2 -30
-6 -9 -42 -12 -79 -7 -17 3 -16 29 1 35 19 8 28 47 10 47 -8 0 -14 -10 -15
-22 0 -22 -1 -22 -8 -3 -5 12 -4 23 2 27 7 4 1 16 -16 32 -32 30 -35 46 -7 46
14 0 20 -7 21 -22 0 -13 3 -17 6 -10 4 10 8 10 19 1 12 -10 18 -9 31 3 18 18
13 30 -35 82 -17 19 -32 42 -32 51 0 8 -6 15 -13 15 -18 0 -49 34 -40 43 3 4
-1 7 -10 7 -10 0 -17 8 -17 20 0 13 -7 20 -20 20 -31 0 -24 20 8 21 22 1 23 2
5 6 -12 2 -27 10 -33 18 -8 10 -17 11 -40 2 -26 -10 -32 -9 -44 8 -8 11 -17
34 -20 50 -6 34 5 96 17 96 4 -1 6 2 5 7 -2 4 -8 7 -15 7 -28 0 -23 15 8 24
26 7 28 9 12 10 -25 1 -31 17 -11 24 10 3 10 7 1 18 -13 16 -15 79 -1 79 4 0
8 5 8 11 0 6 -9 8 -20 4 -11 -4 -20 -2 -20 4 0 6 5 11 10 11 6 0 15 11 21 24
10 20 8 28 -10 47 -14 16 -21 36 -21 65 0 23 -3 51 -6 61 -5 15 -4 15 5 3 17
-24 22 -7 24 76 2 121 -4 163 -26 179 -11 7 -17 21 -14 32 3 15 6 13 15 -9 18
-45 23 -33 18 45 -3 39 -6 77 -6 82 0 6 -7 2 -14 -8 -13 -16 -14 -16 -20 8 -4
14 -4 30 -1 35 4 6 3 15 -1 22 -12 19 -10 92 3 106 20 21 23 14 21 -58 -2 -39
1 -70 6 -70 14 0 1 209 -14 223 -10 10 -12 7 -8 -15 7 -36 -8 -37 -16 -2 -5
20 -2 32 14 46 17 16 21 30 19 79 -1 32 -6 59 -12 59 -5 0 -6 -17 -2 -39 4
-25 2 -41 -5 -46 -6 -4 -13 -5 -15 -3 -2 2 -6 84 -10 183 -3 99 -8 216 -10
260 -3 44 -8 152 -10 240 -3 88 -7 216 -10 285 -12 284 -14 346 -19 590 -3
140 -9 323 -13 405 -3 83 -7 182 -7 222 -1 39 -4 74 -8 78 -3 4 -5 41 -3 83 3
50 1 70 -5 57 -7 -17 -9 -16 -9 10 0 17 3 37 8 44 6 9 6 22 -1 34 -7 14 -7 17
1 13 12 -8 9 390 -6 829 -3 110 -6 326 -7 480 -1 267 0 283 21 337 13 32 21
63 19 70 -3 7 -7 25 -10 41 -4 15 -11 27 -17 27 -7 0 -9 -10 -5 -27 12 -50 11
-76 -2 -80 -6 -3 -13 4 -13 14 -2 27 -7 311 -8 451 0 95 -3 122 -14 122 -7 0
-18 -12 -24 -27 l-11 -28 -1 28 -1 27 -285 0 -285 0 0 -10240z m597 10118 c-3
-7 -5 -2 -5 12 0 14 2 19 5 13 2 -7 2 -19 0 -25z m51 -2413 c-3 -3 -9 2 -12
12 -6 14 -5 15 5 6 7 -7 10 -15 7 -18z m99 -2267 c-3 -8 -6 -5 -6 6 -1 11 2
17 5 13 3 -3 4 -12 1 -19z m35 -545 c6 -11 8 -27 5 -35 -3 -7 -6 -4 -6 9 -1
12 -5 25 -11 28 -5 3 -10 16 -9 28 0 14 2 16 6 7 2 -8 9 -25 15 -37z m-5 -90
c-3 -10 -5 -4 -5 12 0 17 2 24 5 18 2 -7 2 -21 0 -30z m4117 -108 c3 -8 1 -15
-4 -15 -6 0 -10 7 -10 15 0 8 2 15 4 15 2 0 6 -7 10 -15z m-124 -61 c0 -8 -19
-13 -24 -6 -3 5 1 9 9 9 8 0 15 -2 15 -3z m1275 -14 c3 -5 1 -10 -4 -10 -6 0
-11 5 -11 10 0 6 2 10 4 10 3 0 8 -4 11 -10z m-1350 -49 c3 -5 2 -12 -3 -15
-5 -3 -9 1 -9 9 0 17 3 19 12 6z m55 -29 c0 -5 -7 -9 -15 -9 -8 0 -15 4 -15 9
0 4 7 8 15 8 8 0 15 -4 15 -8z m-117 -15 c4 3 7 4 7 1 0 -3 -8 -12 -17 -19
-10 -7 -15 -9 -11 -5 4 5 2 16 -5 25 -10 14 -10 14 4 4 9 -7 19 -10 22 -6z
m30 -2 c-3 -9 -8 -14 -10 -11 -3 3 -2 9 2 15 9 16 15 13 8 -4z m-3876 -107
c-3 -8 -6 -5 -6 6 -1 11 2 17 5 13 3 -3 4 -12 1 -19z m3850 7 c0 -8 -4 -12 -9
-9 -5 3 -6 10 -3 15 9 13 12 11 12 -6z m1705 -200 c-7 -40 -17 -37 -17 5 0 28
3 36 11 29 6 -5 9 -20 6 -34z m-5488 -81 c10 -27 7 -64 -6 -64 -8 -1 -6 -6 5
-14 9 -7 17 -21 17 -31 0 -13 6 -16 23 -11 21 5 24 2 25 -24 1 -26 -2 -29 -29
-27 -28 2 -42 16 -16 18 10 0 10 2 0 6 -7 2 -13 12 -13 21 0 10 -9 -1 -19 -23
-14 -30 -20 -35 -21 -20 -3 29 1 49 11 56 6 3 6 17 0 35 -5 16 -12 44 -15 62
-5 27 -2 32 13 32 10 0 22 -7 25 -16z m3769 -9 c-3 -9 -8 -14 -10 -11 -3 3 -2
9 2 15 9 16 15 13 8 -4z m-22 -103 c-11 -4 -11 -6 0 -13 10 -6 7 -8 -8 -6 -21
1 -21 2 -6 19 9 10 19 15 22 12 3 -4 0 -9 -8 -12z m-3613 -50 c2 -13 10 -26
18 -29 8 -3 11 -9 8 -14 -3 -5 -10 -7 -15 -3 -5 3 -16 1 -24 -6 -10 -8 -18 -8
-34 2 -19 12 -19 13 9 25 33 13 40 39 13 47 -14 4 -14 4 2 3 12 -1 21 -11 23
-25z m3649 -39 c-7 -6 -46 10 -41 18 3 5 14 3 24 -3 11 -7 18 -13 17 -15z
m-3757 -4 c0 -6 -7 -8 -16 -5 -12 5 -15 2 -10 -10 3 -8 -1 -25 -9 -37 -22 -32
-20 -67 5 -67 11 0 20 5 20 10 0 6 5 10 10 10 6 0 10 -9 10 -21 0 -11 5 -17
10 -14 6 3 13 -1 16 -10 4 -9 12 -14 19 -11 7 2 15 -4 18 -15 3 -13 0 -19 -10
-19 -11 0 -14 -7 -11 -24 4 -21 3 -23 -14 -13 -11 7 -17 21 -16 36 3 20 -2 25
-26 28 -46 6 -60 28 -58 91 1 41 6 60 19 69 21 16 43 17 43 2z m2270 -25 c0
-21 -4 -24 -36 -24 -28 0 -35 3 -30 15 3 10 -1 15 -11 15 -12 0 -14 3 -7 10 7
7 19 8 37 1 22 -9 27 -8 27 5 0 8 5 12 10 9 6 -3 10 -17 10 -31z m-100 1 c0
-8 -2 -15 -4 -15 -2 0 -6 7 -10 15 -3 8 -1 15 4 15 6 0 10 -7 10 -15z m-2173
-37 c-3 -7 -5 -2 -5 12 0 14 2 19 5 13 2 -7 2 -19 0 -25z m84 1 c18 -15 20
-22 10 -28 -10 -7 -10 -9 2 -14 8 -3 17 -15 20 -26 4 -16 0 -21 -14 -21 -10 0
-19 5 -19 11 0 5 -13 24 -30 42 -16 18 -30 38 -30 45 0 19 34 14 61 -9z m1927
-19 c14 -23 10 -25 -19 -9 -11 5 -17 14 -14 20 9 14 19 11 33 -11z m226 4 c9
-8 16 -25 15 -37 l0 -22 -11 22 c-21 43 -74 41 -65 -3 5 -30 -22 -40 -63 -22
-36 16 -39 28 -6 28 35 0 56 10 56 27 0 8 3 12 8 10 4 -3 16 -1 27 4 11 4 21
8 22 8 1 1 9 -6 17 -15z m1447 -4 c3 -8 0 -20 -7 -27 -13 -13 -13 -50 -1 -70
9 -15 -18 -24 -32 -10 -15 15 -14 40 2 31 9 -5 9 -4 0 6 -13 14 -6 39 16 58 9
8 11 11 5 8 -6 -3 -11 1 -11 9 0 18 20 15 28 -5z m-1710 -46 c5 -15 8 -27 7
-28 -2 0 -13 -7 -25 -13 -13 -7 -25 -13 -28 -13 -10 0 -5 56 7 68 18 18 27 15
39 -14z m99 6 c0 -5 -5 -10 -11 -10 -21 0 3 -20 24 -20 20 -1 20 -2 -5 -16
-28 -15 -88 -16 -88 -2 0 5 11 13 25 18 16 6 23 14 19 25 -4 10 0 15 15 15 12
0 21 -4 21 -10z m160 -20 c0 -5 -4 -10 -10 -10 -5 0 -10 5 -10 10 0 6 5 10 10
10 6 0 10 -4 10 -10z m-50 -50 c0 -9 -31 -23 -37 -17 -2 2 -1 11 3 20 5 15 34
13 34 -3z m-204 -4 c14 -14 19 -36 9 -36 -3 0 -14 9 -25 20 -11 11 -20 22 -20
25 0 10 22 5 36 -9z m-1816 -9 c0 -19 -59 -42 -73 -28 -14 14 -1 28 33 34 14
2 28 5 33 6 4 0 7 -5 7 -12z m1767 1 c6 -7 13 -23 16 -36 5 -20 3 -21 -10 -10
-9 7 -24 12 -34 10 -10 -2 -28 2 -40 9 -20 10 -21 9 -16 -10 4 -17 1 -21 -19
-21 -32 0 -30 15 4 45 29 27 83 33 99 13z m284 -21 c-8 -8 -11 -7 -11 4 0 20
13 34 18 19 3 -7 -1 -17 -7 -23z m1404 23 c3 -5 1 -10 -4 -10 -6 0 -11 5 -11
10 0 6 2 10 4 10 3 0 8 -4 11 -10z m-1530 -36 c5 -27 2 -41 -11 -55 -20 -23
-39 -12 -49 28 -5 21 -1 31 17 45 32 24 35 23 43 -18z m-1885 8 c0 -13 -12
-22 -22 -16 -10 6 -1 24 13 24 5 0 9 -4 9 -8z m1976 -69 c-4 -4 -11 -1 -16 7
-16 25 -11 35 7 17 9 -9 13 -20 9 -24z m-2196 6 c0 -5 -7 -9 -15 -9 -8 0 -15
7 -15 15 0 9 6 12 15 9 8 -4 15 -10 15 -15z m1905 11 c3 -5 -1 -10 -10 -10 -9
0 -13 5 -10 10 3 6 8 10 10 10 2 0 7 -4 10 -10z m-1825 -32 c0 -16 -3 -19 -11
-11 -6 6 -8 16 -5 22 11 17 16 13 16 -11z m1878 -8 c-1 -17 -6 -29 -11 -27 -5
1 -8 6 -8 10 1 4 1 16 1 27 0 11 5 20 10 20 6 0 9 -14 8 -30z m-84 -9 c3 -5
-5 -11 -19 -13 -20 -4 -23 -3 -14 8 13 16 25 18 33 5z m-1884 -22 c0 -5 -4 -9
-8 -9 -5 0 -9 7 -9 15 0 8 4 12 9 9 4 -3 8 -9 8 -15z m2030 -19 c0 -13 -5 -18
-15 -14 -16 7 -19 17 -8 27 12 13 23 7 23 -13z m-1846 -20 c11 -24 12 -30 1
-30 -13 0 -25 21 -25 46 0 22 7 17 24 -16z m1876 15 c0 -8 -4 -15 -10 -15 -5
0 -7 7 -4 15 4 8 8 15 10 15 2 0 4 -7 4 -15z m-2050 -9 c0 -11 -19 -15 -25 -6
-3 5 1 10 9 10 9 0 16 -2 16 -4z m263 -25 c3 -14 1 -18 -9 -14 -15 6 -18 16
-7 26 9 10 10 9 16 -12z m-269 -16 c-4 -8 -10 -15 -15 -15 -5 0 -9 7 -9 15 0
8 7 15 15 15 9 0 12 -6 9 -15z m241 -12 c16 -22 8 -43 -15 -43 -23 0 -30 20
-16 43 13 21 16 21 31 0z m-115 -19 c0 -8 -4 -14 -10 -14 -5 0 -10 9 -10 21 0
11 5 17 10 14 6 -3 10 -13 10 -21z m-100 -57 c6 -17 6 -26 0 -22 -6 4 -10 -6
-10 -22 0 -22 2 -25 10 -13 8 12 10 9 10 -13 0 -25 -2 -27 -20 -17 -23 12 -26
41 -7 71 10 17 10 23 0 26 -14 5 -17 35 -5 47 4 4 8 0 10 -11 2 -10 7 -31 12
-46z m309 33 c30 15 37 -7 11 -30 -20 -18 -21 -21 -6 -35 14 -15 14 -18 -2
-43 -9 -14 -12 -23 -6 -20 7 5 9 -3 6 -23 -4 -24 -9 -29 -33 -29 -26 0 -29 3
-29 33 0 17 -3 43 -7 56 -5 19 -3 22 8 15 22 -14 39 -13 39 1 0 7 -9 15 -21
18 -16 4 -19 11 -14 26 4 12 2 21 -4 21 -6 0 -11 7 -11 16 0 15 2 15 25 0 19
-12 30 -14 44 -6z m-86 -65 c-13 -9 -29 -12 -40 -8 -16 6 -15 8 7 14 44 12 56
10 33 -6z m21 -110 c5 -44 14 -83 20 -87 6 -4 7 -10 3 -14 -14 -14 -37 18 -31
43 5 17 1 28 -11 37 -15 10 -16 16 -6 35 10 18 9 27 -4 48 -16 23 -16 25 2 21
15 -3 20 -18 27 -83z m-118 48 c-10 -10 -19 5 -10 18 6 11 8 11 12 0 2 -7 1
-15 -2 -18z m1537 13 c12 -10 15 -16 7 -21 -16 -10 -40 2 -40 20 0 18 9 19 33
1z m94 -51 c-4 -8 -11 -15 -17 -15 -14 0 -13 27 3 33 16 6 21 1 14 -18z
m-1757 -10 c0 -8 -4 -15 -10 -15 -5 0 -10 7 -10 15 0 8 5 15 10 15 6 0 10 -7
10 -15z m1280 -40 c0 -3 -4 -3 -10 0 -5 3 -10 2 -10 -2 0 -13 -53 -8 -58 5 -2
7 1 12 8 12 6 0 8 5 4 12 -5 7 -3 8 7 2 20 -12 40 -14 33 -3 -3 5 -10 7 -15 4
-5 -3 -6 1 -3 9 5 13 9 12 25 -8 10 -13 19 -27 19 -31z m135 45 c3 -5 2 -10
-3 -10 -10 0 -9 -30 1 -47 4 -7 -4 -17 -22 -26 -22 -11 -31 -12 -35 -3 -2 6
-2 -4 1 -23 l6 -34 -46 6 c-25 4 -49 2 -52 -3 -3 -5 -12 -7 -20 -4 -21 9 -6
34 21 34 13 0 24 5 24 10 0 6 6 10 14 10 10 0 14 9 13 27 -2 22 3 29 19 31 12
2 24 12 27 23 5 20 41 27 52 9z m85 -31 c0 -5 -4 -9 -10 -9 -5 0 -10 7 -10 16
0 8 5 12 10 9 6 -3 10 -10 10 -16z m366 -16 c-10 -10 -19 5 -10 18 6 11 8 11
12 0 2 -7 1 -15 -2 -18z m-26 7 c0 -5 -7 -10 -15 -10 -8 0 -15 5 -15 10 0 6 7
10 15 10 8 0 15 -4 15 -10z m2840 -4 c0 -2 -8 -10 -17 -17 -16 -13 -17 -12 -4
4 13 16 21 21 21 13z m-2680 -16 c0 -5 -9 -10 -21 -10 -11 0 -17 5 -14 10 3 6
13 10 21 10 8 0 14 -4 14 -10z m2557 -12 c-3 -8 -6 -5 -6 6 -1 11 2 17 5 13 3
-3 4 -12 1 -19z m163 1 c0 -11 -4 -18 -10 -14 -5 3 -7 12 -3 20 7 21 13 19 13
-6z m40 1 c-6 -11 -7 -19 -3 -18 4 2 9 -1 11 -7 1 -5 -5 -10 -15 -10 -9 0 -17
10 -20 23 -1 13 1 21 6 17 5 -3 12 -1 16 5 12 19 16 10 5 -10z m-3115 -10 c3
-5 1 -10 -4 -10 -6 0 -11 5 -11 10 0 6 2 10 4 10 3 0 8 -4 11 -10z m-1530 -35
c0 -34 -18 -37 -19 -2 -1 15 3 27 9 27 6 0 11 -11 10 -25z m43 3 c-5 -32 -28
-35 -28 -4 0 17 5 26 16 26 10 0 14 -7 12 -22z m4412 18 c0 -3 -4 -8 -10 -11
-5 -3 -10 -1 -10 4 0 6 5 11 10 11 6 0 10 -2 10 -4z m127 -2 c-3 -3 -12 -4
-19 -1 -8 3 -5 6 6 6 11 1 17 -2 13 -5z m-3100 -26 c-3 -8 -6 -5 -6 6 -1 11 2
17 5 13 3 -3 4 -12 1 -19z m-395 -10 c-7 -7 -12 -8 -12 -2 0 14 12 26 19 19 2
-3 -1 -11 -7 -17z m-1152 -60 c0 -13 -27 -9 -39 5 -8 10 -7 17 1 25 8 8 15 7
24 -6 8 -9 14 -20 14 -24z m795 -18 c0 -22 -3 -40 -7 -40 -5 0 -8 18 -8 40 0
22 3 40 8 40 4 0 7 -18 7 -40z m515 25 c8 5 11 3 8 -5 -5 -15 -36 -22 -58 -14
-12 4 -12 8 4 20 14 10 22 11 27 3 4 -6 12 -8 19 -4z m70 -15 c0 -10 -4 -21
-9 -24 -10 -7 -23 33 -15 46 8 13 24 -1 24 -22z m-290 10 c0 -5 -4 -10 -10
-10 -5 0 -10 5 -10 10 0 6 5 10 10 10 6 0 10 -4 10 -10z m108 -3 c17 -20 10
-57 -10 -57 -9 0 -24 -10 -32 -21 -17 -25 -39 -20 -56 10 -9 18 -8 21 12 18
18 -1 24 4 26 25 3 23 12 31 43 37 4 0 11 -5 17 -12z m-202 -8 c3 -6 15 -8 26
-6 17 5 19 2 16 -22 -3 -20 1 -32 14 -40 10 -6 18 -7 18 -2 0 5 -6 12 -12 14
-7 3 -8 6 -3 6 6 0 19 -6 29 -14 16 -12 17 -17 6 -30 -7 -8 -15 -13 -17 -11
-3 3 -16 1 -29 -4 -14 -6 -24 -6 -24 -1 0 5 5 11 12 13 7 3 3 13 -12 28 -15
15 -25 19 -28 12 -7 -23 -30 14 -25 41 6 28 17 35 29 16z m-45 -12 c-1 -12
-15 -9 -19 4 -3 6 1 10 8 8 6 -3 11 -8 11 -12z m-658 -17 c28 -1 61 -25 52
-39 -9 -16 -45 -13 -51 4 -4 10 -14 13 -29 9 -37 -9 -49 5 -23 26 13 10 25 14
26 9 2 -5 13 -9 25 -9z m-293 0 c0 -5 -2 -10 -4 -10 -3 0 -8 5 -11 10 -3 6 -1
10 4 10 6 0 11 -4 11 -10z m188 -12 c-5 -15 -74 -23 -82 -10 -3 6 2 8 13 5 11
-3 28 0 38 6 24 14 36 14 31 -1z m2202 -132 c0 -304 78 -550 195 -614 11 -6
15 -12 9 -12 -22 0 -102 61 -127 98 -60 85 -108 291 -109 467 -1 66 2 139 6
163 15 83 26 40 26 -102z m-1450 103 c0 -18 -2 -19 -15 -9 -12 10 -15 10 -15
-1 0 -10 -3 -10 -12 -1 -10 10 -10 15 2 22 25 16 40 11 40 -11z m326 -25 c-4
-12 -10 -14 -17 -7 -5 5 -7 17 -3 27 4 12 10 14 17 7 5 -5 7 -17 3 -27z m3641
6 c3 -11 9 -17 15 -14 5 3 4 12 -3 20 -10 12 -1 14 55 14 42 0 66 -4 66 -11 0
-6 -6 -9 -12 -6 -7 2 -22 1 -33 -4 -15 -6 -9 -8 22 -8 23 -1 49 -4 57 -7 12
-5 15 -2 10 11 -7 16 -1 17 61 10 82 -8 101 -12 183 -30 82 -19 115 -37 148
-80 24 -32 26 -40 21 -112 -16 -254 -94 -487 -199 -595 -51 -52 -68 -61 -173
-88 -224 -58 -549 -40 -703 39 -60 30 -121 100 -157 176 -33 71 -66 201 -64
259 1 34 3 31 19 -31 9 -35 14 -41 32 -38 12 3 31 13 41 24 25 25 16 68 -17
81 -14 5 -30 21 -38 36 -16 33 -35 41 -40 17 -3 -17 -3 78 0 144 2 36 65 113
92 113 23 0 19 -55 -9 -113 -16 -34 -19 -52 -12 -61 6 -6 8 -22 5 -33 -5 -18
1 -25 30 -37 20 -8 36 -22 36 -31 0 -30 46 -85 87 -106 24 -11 45 -25 49 -30
3 -5 10 -7 15 -3 5 3 16 0 24 -6 8 -6 19 -9 25 -5 6 4 20 -3 31 -16 10 -12 19
-17 19 -11 0 7 7 12 15 12 8 0 15 -5 15 -12 0 -23 12 2 15 30 3 38 12 52 33
52 10 0 28 7 40 16 20 14 22 14 22 -1 0 -30 25 -9 30 26 5 33 6 33 14 9 9 -27
7 -30 22 38 5 24 29 30 38 10 3 -7 4 -4 1 8 -5 18 -2 20 25 16 17 -2 48 4 72
15 54 25 105 35 113 23 13 -20 25 -9 20 18 -3 15 -2 21 1 14 5 -10 9 -10 20
-1 8 6 27 9 44 7 34 -5 34 -5 18 24 -16 27 -55 63 -88 80 -14 7 -30 18 -37 23
-7 6 -18 15 -25 20 -7 6 -38 16 -68 24 -88 22 -114 42 -69 54 23 6 17 27 -7
27 -8 0 -12 5 -9 10 11 19 57 11 62 -10z m-4900 -12 c-3 -8 -6 -5 -6 6 -1 11
2 17 5 13 3 -3 4 -12 1 -19z m384 12 c5 0 9 -9 9 -21 0 -15 5 -19 15 -15 9 3
15 0 15 -9 0 -8 7 -15 15 -15 8 0 15 -7 15 -16 0 -12 -6 -15 -22 -10 -13 3
-37 6 -55 6 -31 0 -31 1 -31 45 1 35 4 45 15 40 8 -3 19 -5 24 -5z m-103 -33
c6 -5 12 -26 12 -48 0 -21 5 -39 10 -39 6 0 10 5 10 11 0 5 4 7 10 4 20 -12
-12 -32 -35 -22 -16 8 -20 17 -16 49 l3 39 -45 -3 c-25 -2 -52 -10 -61 -17
-13 -11 -17 -11 -22 3 -3 9 -17 16 -31 16 -13 0 -22 4 -19 8 6 10 167 9 184
-1z m1392 4 c0 -5 -7 -12 -16 -15 -14 -5 -15 -4 -4 9 14 17 20 19 20 6z m3145
-1 c3 -5 1 -10 -4 -10 -6 0 -11 5 -11 10 0 6 2 10 4 10 3 0 8 -4 11 -10z
m-4795 -26 c0 -8 -4 -12 -10 -9 -5 3 -10 10 -10 16 0 5 5 9 10 9 6 0 10 -7 10
-16z m1290 6 c0 -5 -5 -10 -11 -10 -5 0 -7 5 -4 10 3 6 8 10 11 10 2 0 4 -4 4
-10z m78 -10 c-7 -10 -14 -18 -15 -16 -6 6 9 36 18 36 5 0 4 -9 -3 -20z m178
-7 c-10 -11 -19 -7 -22 10 -2 15 0 16 12 6 8 -6 12 -14 10 -16z m-1329 -3 c10
0 13 -6 9 -16 -3 -9 1 -25 9 -37 22 -31 20 -33 -26 -29 -27 3 -45 0 -51 -9 -6
-9 -7 -6 -2 11 5 14 9 37 10 53 2 39 3 40 20 33 9 -3 22 -6 31 -6z m90 -12
c-3 -8 -6 -5 -6 6 -1 11 2 17 5 13 3 -3 4 -12 1 -19z m783 -7 c0 -11 -4 -23
-10 -26 -5 -3 -10 1 -10 9 0 21 -17 20 -29 -1 -6 -10 -10 -13 -11 -8 0 15 13
31 30 38 26 9 30 8 30 -12z m4610 -21 c0 -22 -4 -40 -8 -40 -5 0 -8 18 -8 40
0 22 4 40 8 40 4 0 8 -18 8 -40z m-4955 20 c-6 -10 9 -15 30 -10 6 1 -1 -11
-15 -26 -14 -15 -20 -24 -14 -21 7 4 14 0 17 -8 4 -10 1 -12 -10 -8 -11 4 -14
2 -9 -5 4 -7 1 -12 -8 -12 -11 0 -16 10 -16 31 0 23 4 30 15 26 8 -4 17 -2 20
3 6 9 -9 15 -29 11 -5 -1 -4 5 4 13 14 18 25 22 15 6z m-755 -84 c-5 -5 -16
-6 -24 -3 -19 8 -21 43 -3 50 15 5 39 -35 27 -47z m94 -18 c-4 -24 -9 -37 -12
-30 -2 6 -13 12 -25 12 -13 0 -17 3 -11 8 6 4 10 15 8 25 -1 9 2 17 8 17 6 0
8 -7 5 -15 -4 -8 -2 -17 3 -20 6 -4 10 12 10 37 1 33 3 39 11 26 5 -9 6 -36 3
-60z m257 42 c5 0 9 5 9 10 0 6 5 10 10 10 6 0 10 -15 10 -34 0 -19 5 -38 10
-41 21 -13 9 -25 -17 -19 -38 10 -50 25 -48 59 3 42 7 53 12 33 2 -10 9 -18
14 -18z m1009 10 c-12 -22 -30 -18 -30 6 0 8 9 14 20 14 18 0 19 -3 10 -20z
m1840 11 c0 -5 -9 -7 -20 -4 -11 3 -20 7 -20 9 0 2 9 4 20 4 11 0 20 -4 20 -9z
m1767 -47 l28 -24 -25 -20 c-14 -11 -32 -20 -40 -20 -8 0 -24 -7 -34 -15 -29
-22 -60 -20 -51 3 24 54 34 93 29 106 -8 21 55 1 93 -30z m-4555 6 c3 -16 1
-30 -4 -30 -4 0 -8 14 -8 30 0 17 2 30 4 30 2 0 6 -13 8 -30z m-116 -7 c-10
-10 -19 5 -10 18 6 11 8 11 12 0 2 -7 1 -15 -2 -18z m4511 -9 c10 -27 -14 -40
-37 -19 -11 10 -17 22 -14 26 9 15 44 10 51 -7z m-4077 -10 c14 -8 17 -13 7
-10 -11 4 -17 1 -16 -7 4 -30 -2 -38 -21 -32 -12 4 -20 2 -20 -5 0 -6 -4 -8
-10 -5 -15 9 -12 42 6 59 19 19 22 19 54 0z m275 6 c3 -6 -4 -10 -17 -10 -18
0 -20 2 -8 10 19 12 18 12 25 0z m81 1 c-4 -5 0 -12 6 -14 8 -3 6 -6 -4 -6
-18 -1 -24 10 -11 22 9 10 15 8 9 -2z m-736 -62 c0 -11 -4 -18 -10 -14 -5 3
-7 12 -3 20 7 21 13 19 13 -6z m-376 -5 c5 -13 9 -14 21 -4 12 10 15 9 15 -4
0 -13 5 -16 20 -11 15 5 18 3 14 -8 -3 -8 -1 -18 5 -22 6 -3 11 1 11 9 0 9 3
16 8 16 14 0 8 -55 -8 -67 -13 -10 -10 -12 18 -13 20 0 31 -4 27 -10 -4 -6
-11 -8 -16 -5 -21 14 -7 -14 16 -29 27 -18 65 -21 65 -6 0 6 -7 10 -15 10 -8
0 -15 5 -15 10 0 6 5 10 12 10 16 0 48 -31 48 -47 0 -7 5 -13 11 -13 6 0 8 -8
4 -19 -7 -23 14 -39 26 -20 6 10 9 6 9 -13 0 -16 5 -28 11 -28 5 0 7 -5 4 -10
-4 -6 -1 -17 5 -25 7 -8 10 -21 7 -29 -4 -9 2 -17 14 -21 22 -7 24 -16 7 -33
-9 -9 -7 -12 10 -12 15 0 22 6 22 20 0 11 3 20 8 20 4 0 13 9 20 20 13 21 7
70 -9 70 -5 0 -8 -3 -7 -7 5 -14 -6 -15 -36 -3 -28 10 -28 11 -11 30 17 19 17
21 0 40 -10 11 -28 19 -39 18 -17 -2 -24 6 -34 40 -9 26 -20 42 -30 42 -8 0
-30 5 -49 12 -26 10 -32 17 -30 37 2 33 31 65 51 58 10 -4 13 -17 10 -47 -3
-35 -1 -41 12 -36 9 3 21 6 27 6 7 0 3 7 -7 15 -16 12 -18 17 -7 28 11 9 14 9
18 0 5 -15 52 -17 73 -3 11 7 7 10 -17 10 -28 0 -33 4 -33 23 0 18 2 19 10 7
5 -8 10 -12 10 -7 0 4 11 0 25 -9 14 -9 22 -20 19 -25 -3 -5 2 -12 10 -15 9
-3 16 -12 16 -19 0 -17 50 -29 63 -16 15 15 -10 41 -38 41 -13 0 -25 6 -28 13
-4 12 9 12 156 -2 20 -2 4 -21 -18 -21 -14 0 -25 -4 -25 -10 0 -5 7 -10 16
-10 27 0 5 -18 -31 -24 -25 -5 -35 -12 -35 -25 0 -10 -7 -24 -15 -31 -18 -15
-20 -30 -3 -30 20 0 48 32 48 57 0 25 10 29 28 11 8 -8 15 -8 27 2 14 12 18
11 26 -1 22 -34 -10 -65 -56 -53 -27 7 -30 2 -15 -26 7 -13 5 -21 -7 -31 -13
-11 -17 -11 -20 -1 -3 6 -10 9 -16 5 -7 -4 -8 0 -3 13 5 12 4 15 -2 9 -6 -6
-7 -34 -1 -74 5 -35 7 -66 4 -69 -2 -3 3 -10 11 -17 14 -9 14 -16 5 -33 -6
-12 -21 -22 -31 -22 -18 0 -19 3 -8 20 16 26 0 40 -18 16 -16 -23 -19 -66 -4
-66 6 0 10 -5 10 -12 0 -9 -3 -9 -12 0 -7 7 -29 12 -50 12 -43 0 -53 19 -10
21 l27 2 -27 4 c-16 2 -28 8 -28 13 0 5 -6 7 -14 4 -8 -3 -25 1 -38 9 -20 14
-25 14 -37 1 -11 -13 -10 -15 5 -12 15 2 18 -3 16 -23 -1 -15 4 -32 13 -39 8
-7 15 -19 15 -26 0 -8 7 -14 15 -14 8 0 15 7 15 16 0 13 10 15 60 12 33 -2 60
-1 60 2 0 3 11 7 25 8 14 1 25 -3 25 -8 0 -9 -15 -14 -33 -11 -5 1 -6 -3 -2
-9 3 -5 13 -10 21 -10 19 0 18 -4 -8 -45 -26 -39 -37 -40 -55 -4 -11 22 -18
24 -68 20 -23 -2 -18 -27 5 -28 11 -1 18 2 15 7 -3 4 6 3 20 -3 19 -9 25 -20
25 -44 l0 -32 80 2 c70 2 80 4 84 22 2 11 3 7 3 -10 -2 -28 -5 -30 -41 -30
-22 -1 -41 -6 -44 -13 -2 -7 3 -12 12 -12 10 0 13 -6 9 -17 -4 -10 -2 -14 4
-10 17 11 45 -3 36 -17 -5 -7 1 -1 13 11 22 26 34 21 34 -14 0 -20 -5 -23 -36
-23 -31 0 -36 3 -31 20 3 11 1 20 -4 20 -5 0 -9 -10 -9 -22 0 -26 -9 -19 -15
12 -2 12 -7 25 -9 27 -9 9 -3 -42 6 -53 9 -12 75 -29 93 -25 5 1 2 -6 -8 -17
-9 -10 -17 -30 -17 -45 0 -15 -8 -31 -17 -36 -46 -27 -47 -28 -25 -51 12 -13
19 -27 16 -31 -3 -5 3 -6 12 -2 12 4 15 3 10 -6 -6 -9 -3 -9 14 1 18 11 23 11
34 -4 7 -10 19 -18 27 -19 11 0 11 -2 1 -6 -22 -8 -62 -49 -62 -63 0 -9 -10
-10 -35 -6 -22 4 -35 3 -35 -4 0 -5 7 -10 15 -10 8 0 15 -4 15 -10 0 -5 6 -10
14 -10 8 0 16 -6 19 -12 3 -9 13 -7 35 9 17 13 37 21 44 20 7 -2 10 -2 6 0 -5
3 -8 15 -8 27 0 12 -5 27 -12 34 -7 7 -8 12 -2 12 6 0 17 -11 24 -25 7 -14 16
-25 19 -25 3 0 15 -8 26 -18 11 -9 19 -16 17 -15 -5 2 -45 -38 -40 -41 1 -1
16 -7 32 -14 23 -10 26 -15 16 -27 -7 -8 -17 -13 -23 -12 -7 1 -13 -10 -15
-25 -4 -35 24 -39 31 -5 4 19 4 18 6 -6 1 -20 -5 -30 -21 -36 -22 -8 -22 -8
-3 -18 11 -6 26 -8 33 -6 6 3 12 -2 12 -11 0 -8 7 -19 16 -24 9 -5 14 -14 10
-21 -10 -16 -26 -14 -26 4 0 9 -9 15 -22 15 -17 0 -19 -3 -10 -12 17 -17 15
-48 -3 -48 -8 0 -15 -4 -15 -10 0 -5 7 -10 15 -10 8 0 15 -7 15 -15 0 -8 5
-15 11 -15 5 0 7 6 3 13 -4 7 -3 9 2 4 5 -5 9 -14 9 -20 1 -7 6 -11 13 -10 7
2 9 -4 5 -14 -5 -12 -3 -14 7 -8 9 6 11 4 5 -5 -6 -10 -13 -7 -27 11 -15 18
-17 19 -10 4 5 -11 8 -28 6 -39 -2 -15 2 -17 27 -12 27 5 29 4 29 -27 l1 -32
15 25 15 25 -4 -27 c-3 -19 0 -25 10 -21 20 8 42 -15 38 -39 -3 -12 0 -27 6
-35 6 -7 9 -27 7 -43 -3 -17 -2 -33 2 -35 7 -4 9 1 15 55 2 19 4 37 4 39 1 2
8 -2 16 -9 12 -10 14 -24 9 -63 -6 -44 -5 -50 9 -44 12 5 17 1 17 -12 0 -11
-9 -21 -21 -24 -14 -4 -20 -11 -16 -21 3 -8 2 -18 -3 -21 -14 -9 -12 -52 3
-75 10 -17 9 -22 -2 -29 -8 -5 -20 -7 -28 -4 -7 3 -13 -2 -13 -11 0 -9 6 -16
14 -16 8 0 21 -3 30 -6 13 -5 16 2 16 35 0 23 5 41 10 41 6 0 10 -4 10 -8 0
-5 7 -9 15 -9 8 0 15 5 15 11 0 6 7 1 14 -10 16 -23 17 -64 2 -64 -5 0 -2 -6
9 -13 10 -8 15 -18 12 -23 -3 -6 -2 -16 4 -24 7 -12 9 -11 10 5 1 11 1 24 0
29 -1 5 5 3 14 -4 8 -7 13 -15 10 -18 -3 -3 -1 -10 5 -16 6 -8 2 -16 -12 -25
-11 -7 -17 -8 -13 -2 3 6 2 11 -3 11 -13 0 -29 -42 -24 -63 3 -15 11 -18 33
-15 16 3 29 0 29 -5 0 -5 8 -4 18 4 16 12 16 12 1 -4 -10 -11 -14 -29 -11 -48
3 -21 7 -27 13 -18 5 9 10 4 15 -16 6 -24 2 -32 -22 -52 -16 -12 -23 -23 -16
-23 7 0 10 -5 6 -11 -3 -6 -14 -9 -23 -7 -10 3 -21 -7 -32 -29 -13 -27 -14
-33 -3 -33 8 0 14 9 14 19 0 23 26 35 34 15 3 -8 -1 -17 -9 -20 -8 -4 -15 -16
-15 -28 0 -17 -6 -22 -22 -22 -25 1 -32 -27 -13 -53 8 -12 6 -13 -13 -9 -12 4
-20 2 -16 -3 3 -5 -2 -9 -11 -9 -9 0 -13 -5 -10 -10 4 -6 10 -8 14 -6 4 3 13
1 21 -4 11 -7 7 -10 -13 -15 -18 -5 -27 -14 -27 -26 0 -14 -9 -21 -30 -25 -20
-5 -30 -12 -30 -25 0 -25 -12 -30 -35 -13 -16 12 -17 14 -2 14 9 0 17 4 17 8
0 4 -12 7 -27 6 -30 -1 -43 -22 -22 -35 10 -6 8 -9 -8 -9 -14 0 -23 -6 -23
-15 0 -8 -6 -15 -12 -15 -7 0 -20 -15 -29 -33 -15 -29 -21 -32 -58 -31 -33 1
-41 -3 -41 -17 0 -12 9 -19 28 -21 19 -2 28 -9 30 -24 3 -19 -3 -23 -42 -28
-36 -6 -46 -11 -46 -26 0 -10 -6 -20 -12 -23 -10 -3 -8 -9 5 -24 22 -25 24
-78 2 -69 -9 3 -20 -3 -27 -14 -7 -11 -18 -20 -25 -20 -7 0 -13 -12 -13 -26 0
-19 -4 -25 -15 -20 -12 4 -13 2 -6 -13 7 -12 18 -17 33 -14 31 5 57 -12 41
-28 -8 -8 -16 -8 -32 0 -15 9 -21 9 -21 1 0 -8 -12 -10 -32 -6 -18 3 -27 3
-21 0 9 -4 10 -11 3 -25 -11 -20 2 -59 20 -59 6 0 10 -12 10 -27 0 -21 -3 -24
-12 -15 -19 19 -28 14 -28 -13 0 -14 -4 -25 -10 -25 -5 0 -10 7 -10 15 0 11
-11 15 -41 15 -36 0 -41 -3 -36 -19 4 -17 2 -18 -18 -11 -13 5 -26 6 -29 3 -3
-4 -6 0 -6 8 0 11 -2 11 -9 1 -10 -17 -40 -22 -68 -11 -14 5 -25 3 -32 -5 -6
-7 -23 -11 -42 -8 -18 3 -26 8 -20 12 9 5 8 10 -4 20 -11 9 -15 9 -15 1 0 -7
-4 -10 -9 -7 -5 4 -11 0 -14 -6 -3 -10 -7 -10 -20 1 -23 18 -21 48 3 63 11 7
20 20 19 28 0 10 -2 11 -6 3 -6 -17 -28 -16 -43 2 -20 24 -30 17 -19 -11 5
-15 7 -29 4 -32 -3 -3 -5 0 -5 6 0 7 -4 12 -9 12 -12 0 -1 -42 13 -53 8 -6 7
-10 -1 -14 -9 -3 -10 -10 -3 -24 7 -13 7 -19 0 -19 -5 0 -10 -9 -10 -20 0 -22
-1 -23 -24 -14 -13 5 -16 26 -16 124 0 106 2 118 17 116 12 -1 19 7 21 23 5
30 -15 52 -28 31 -8 -12 -10 -9 -10 11 0 19 6 28 21 32 17 5 19 9 10 25 -8 16
-7 21 4 26 8 3 15 11 15 18 0 9 -3 9 -10 -2 -7 -12 -10 -11 -16 5 -4 11 -12
23 -18 27 -6 4 -11 38 -11 75 -1 38 -4 74 -8 80 -4 7 -3 14 3 18 6 4 8 10 5
15 -12 19 -23 378 -30 926 -5 392 -4 437 10 420 12 -16 15 -17 15 -4 0 9 8 19
18 23 15 6 15 7 1 15 -10 6 -15 18 -12 32 2 13 -3 32 -11 43 -12 15 -15 16
-16 5 0 -13 -1 -13 -10 0 -12 19 -13 110 -1 110 6 0 11 -19 13 -42 2 -29 8
-43 17 -43 8 0 16 6 19 13 2 6 -3 12 -10 12 -11 0 -14 10 -11 38 1 20 3 46 3
56 1 11 8 25 17 31 13 10 12 15 -12 41 -18 19 -29 25 -32 17 -3 -7 -8 -13 -12
-13 -11 0 -1 151 12 175 14 27 16 68 3 78 -8 6 -8 10 0 13 7 3 9 24 6 56 -4
38 -2 49 7 43 8 -4 14 1 18 13 3 11 11 23 19 26 18 7 18 -20 0 -31 -7 -4 -16
-26 -20 -48 -6 -37 -5 -39 9 -21 14 19 15 18 15 -17 0 -28 3 -35 15 -31 8 4
15 1 15 -5 0 -14 -27 -15 -35 -1 -13 21 -22 9 -21 -27 1 -38 21 -56 32 -29 3
9 10 14 14 11 5 -3 20 -1 34 5 17 6 35 6 53 -1 20 -7 28 -7 35 3 11 18 4 33
-16 32 -10 -1 -16 6 -16 21 0 34 10 55 26 55 8 0 14 5 14 10 0 14 27 13 32 -2
6 -18 28 1 28 25 0 17 -3 19 -9 8 -7 -11 -11 -8 -17 10 -4 13 -8 31 -8 39 -1
8 -20 24 -43 35 -33 16 -41 24 -36 39 3 10 7 34 8 53 3 28 -1 36 -19 43 -25 9
-61 74 -51 90 4 7 21 2 45 -11 32 -18 42 -20 55 -9 12 10 19 9 40 -4 20 -13
25 -14 25 -2 0 7 -10 21 -22 29 -22 15 -22 15 19 14 26 -1 45 -7 48 -15 4 -11
8 -12 20 -2 20 17 19 25 -7 38 -21 9 -21 11 -4 11 23 1 12 16 -12 16 -12 0
-16 7 -14 23 2 20 -1 22 -20 17 -13 -4 -27 -11 -32 -16 -16 -15 -23 -10 -29
20 -5 22 -15 32 -46 45 -32 12 -41 21 -41 40 0 14 -8 32 -17 42 -10 9 -18 24
-18 33 0 11 -7 15 -21 13 -22 -3 -39 21 -28 39 8 14 21 11 28 -7z m660 -28
c-10 -8 -23 -12 -27 -9 -5 3 2 11 15 17 29 16 38 10 12 -8z m381 4 c3 -5 -1
-10 -10 -10 -9 0 -13 5 -10 10 3 6 8 10 10 10 2 0 7 -4 10 -10z m-1121 -50 c2
-19 6 -40 8 -46 1 -7 -1 -14 -7 -15 -6 -2 -11 20 -13 51 -3 59 5 66 12 10z
m801 30 c3 -5 12 -7 20 -3 10 3 15 -1 15 -11 0 -13 -4 -15 -18 -7 -13 7 -23 6
-30 -1 -14 -14 -16 -32 -3 -23 5 3 12 1 16 -5 10 -16 -21 -12 -35 5 -7 8 -16
13 -19 10 -4 -2 -8 2 -8 10 0 8 4 12 9 9 4 -3 8 2 8 10 0 17 35 22 45 6z m203
-17 c2 -8 -6 -13 -22 -13 -17 0 -26 5 -26 16 0 19 41 16 48 -3z m-321 -25 c-3
-7 -5 -2 -5 12 0 14 2 19 5 13 2 -7 2 -19 0 -25z m553 5 c0 -26 -1 -26 -17
-10 -16 16 -16 19 -3 27 20 13 20 13 20 -17z m31 -2 c6 10 8 7 6 -8 -1 -17 -4
-19 -14 -11 -7 6 -13 16 -12 22 0 6 3 5 6 -3 5 -11 7 -11 14 0z m2974 -30 c3
-14 10 -39 15 -55 5 -16 7 -32 5 -36 -2 -4 2 -28 10 -55 18 -57 12 -72 -8 -24
-8 19 -26 52 -41 73 -25 37 -37 112 -20 129 12 12 34 -6 39 -32z m-3289 1 c-9
-9 -37 8 -31 18 5 8 11 7 21 -1 8 -6 12 -14 10 -17z m-294 -24 c-8 -8 -9 -4
-5 13 4 13 8 18 11 10 2 -7 -1 -18 -6 -23z m88 20 c0 -9 4 -8 10 2 7 11 10 3
10 -28 l0 -43 -21 20 c-12 11 -18 25 -14 31 4 7 1 16 -6 21 -11 7 -10 9 4 9 9
0 17 -6 17 -12z m-63 -30 c-3 -8 -6 -5 -6 6 -1 11 2 17 5 13 3 -3 4 -12 1 -19z
m-613 -26 c7 -12 -7 -29 -26 -29 -13 0 -14 4 -5 19 13 19 23 23 31 10z m4306
-28 c0 -8 -4 -12 -10 -9 -5 3 -10 13 -10 21 0 8 5 12 10 9 6 -3 10 -13 10 -21z
m-4370 0 c0 -8 -5 -12 -10 -9 -6 4 -8 11 -5 16 9 14 15 11 15 -7z m660 -5 c0
-6 -4 -7 -10 -4 -5 3 -10 11 -10 16 0 6 5 7 10 4 6 -3 10 -11 10 -16z m-546
-20 c29 -23 33 -41 11 -59 -15 -12 -21 -4 -16 23 1 5 -7 6 -18 2 -12 -3 -21 0
-25 10 -3 8 -12 15 -21 15 -8 0 -15 5 -15 10 0 16 27 12 34 -5 6 -16 36 -21
36 -5 0 5 -8 14 -17 19 -10 6 -13 11 -7 11 6 0 23 -9 38 -21z m611 11 c8 -13
-16 -48 -38 -54 -10 -2 -16 -9 -12 -15 3 -6 -1 -11 -9 -11 -8 0 -18 9 -21 20
-3 11 -15 20 -26 20 -11 0 -19 7 -19 16 0 13 8 15 35 12 19 -2 35 -1 35 3 0 7
17 14 42 18 4 0 9 -3 13 -9z m-535 -27 c-1 -24 -2 -26 -11 -10 -5 9 -7 22 -4
27 10 17 15 11 15 -17z m985 17 c3 -5 1 -10 -4 -10 -6 0 -11 5 -11 10 0 6 2
10 4 10 3 0 8 -4 11 -10z m-397 -31 c-10 -5 -15 -16 -12 -24 4 -8 1 -15 -5
-15 -12 0 -15 32 -4 43 3 4 13 7 22 7 14 -1 14 -2 -1 -11z m62 -9 c0 -5 -6
-10 -14 -10 -8 0 -18 5 -21 10 -3 6 3 10 14 10 12 0 21 -4 21 -10z m-234 -20
c5 0 10 -7 12 -17 3 -21 -53 -69 -63 -53 -3 6 1 10 9 10 18 0 29 33 21 63 -4
15 -3 18 3 9 5 -8 13 -13 18 -12z m372 -6 c12 -8 21 -23 21 -32 -1 -15 -2 -15
-6 1 -4 14 -8 15 -18 7 -10 -8 -19 -8 -34 0 -24 12 -27 26 -8 33 19 8 21 8 45
-9z m-781 -28 c-23 -23 -28 -20 -15 9 7 16 15 22 21 16 6 -6 4 -15 -6 -25z
m373 13 c0 -11 -4 -17 -10 -14 -5 3 -10 13 -10 21 0 8 5 14 10 14 6 0 10 -9
10 -21z m-547 -1 c3 -10 9 -10 25 -1 17 10 20 9 25 -13 3 -20 2 -22 -10 -13
-7 7 -16 9 -20 6 -8 -8 -43 11 -43 23 0 14 18 12 23 -2z m647 -24 c0 -8 -4
-14 -9 -14 -5 0 -8 -8 -7 -17 0 -10 -6 -18 -14 -18 -8 0 -13 7 -11 15 2 8 4
21 4 28 0 6 4 12 9 12 5 0 6 4 3 10 -3 6 1 7 9 4 9 -3 16 -12 16 -20z m510 -4
c0 -5 -7 -10 -16 -10 -8 0 -12 5 -9 10 3 6 10 10 16 10 5 0 9 -4 9 -10z m80
-15 c-7 -9 -15 -13 -19 -10 -3 3 1 10 9 15 21 14 24 12 10 -5z m-566 -10 c-4
-8 -8 -15 -10 -15 -2 0 -4 7 -4 15 0 8 4 15 10 15 5 0 7 -7 4 -15z m-97 -20
c-4 -8 -18 -15 -32 -15 -17 0 -24 -4 -19 -11 7 -11 -12 -29 -31 -29 -5 1 -2 5
8 11 9 6 14 15 11 21 -9 14 17 29 39 22 12 -4 17 0 17 12 0 10 3 15 6 11 4 -3
4 -13 1 -22z m-487 -1 c0 -8 -4 -12 -10 -9 -5 3 -10 10 -10 16 0 5 5 9 10 9 6
0 10 -7 10 -16z m-105 -14 c3 -5 1 -10 -4 -10 -6 0 -11 5 -11 10 0 6 2 10 4
10 3 0 8 -4 11 -10z m35 -44 c0 -5 -6 -4 -13 3 -10 8 -17 7 -25 -1 -7 -7 -12
-8 -12 -4 0 5 8 15 17 22 18 12 32 3 33 -20z m42 -18 c-9 -9 -15 -9 -24 0 -10
10 -10 15 2 22 20 12 38 -6 22 -22z m68 8 c0 -26 -15 -43 -24 -28 -7 12 4 52
15 52 5 0 9 -11 9 -24z m760 12 c0 -4 -4 -8 -9 -8 -5 0 -23 -3 -40 -6 -23 -5
-31 -3 -31 7 0 10 13 14 40 14 22 1 40 -3 40 -7z m100 8 c0 -3 -4 -8 -10 -11
-5 -3 -10 -1 -10 4 0 6 5 11 10 11 6 0 10 -2 10 -4z m1740 -52 c0 -9 -28 -3
-46 11 -17 13 -16 14 14 4 17 -6 32 -13 32 -15z m-2180 -10 c0 -14 -21 -19
-33 -7 -9 9 13 34 24 27 5 -3 9 -12 9 -20z m-525 -4 c3 -6 -4 -10 -17 -10 -18
0 -20 2 -8 10 19 12 18 12 25 0z m582 -6 c-3 -3 -12 -4 -19 -1 -8 3 -5 6 6 6
11 1 17 -2 13 -5z m62 -8 c36 -1 43 -36 7 -36 -14 0 -26 5 -26 11 0 7 -8 18
-17 26 -10 8 -12 11 -4 7 8 -4 26 -7 40 -8z m2131 4 c18 -12 2 -12 -25 0 -13
6 -15 9 -5 9 8 0 22 -4 30 -9z m-1875 -30 c-5 -8 -11 -8 -17 -2 -6 6 -7 16 -3
22 5 8 11 8 17 2 6 -6 7 -16 3 -22z m-918 -2 c-3 -8 -6 -5 -6 6 -1 11 2 17 5
13 3 -3 4 -12 1 -19z m1413 14 c0 -5 -11 -14 -25 -20 -29 -13 -33 -5 -7 14 20
15 32 18 32 6z m1565 -22 c3 -5 1 -10 -4 -10 -6 0 -11 5 -11 10 0 6 2 10 4 10
3 0 8 -4 11 -10z m-2499 -37 c-11 -11 -17 4 -9 23 7 18 8 18 11 1 2 -10 1 -21
-2 -24z m333 -1 c-7 -3 -18 -11 -22 -18 -10 -18 -37 -18 -37 -1 0 17 40 36 59
29 13 -5 13 -6 0 -10z m-647 -56 c-4 -7 -8 -3 -10 12 -2 12 -8 22 -13 22 -5 0
-9 6 -9 13 1 6 9 1 20 -12 11 -12 17 -28 12 -35z m460 -41 c-2 -36 -8 -65 -14
-65 -5 0 -8 25 -5 63 6 71 5 67 15 67 4 0 5 -29 4 -65z m-492 45 c0 -5 -7 -10
-15 -10 -8 0 -15 5 -15 10 0 6 7 10 15 10 8 0 15 -4 15 -10z m610 -34 c0 -3
-4 -8 -10 -11 -5 -3 -10 -1 -10 4 0 6 5 11 10 11 6 0 10 -2 10 -4z m75 -26 c3
-5 1 -10 -4 -10 -6 0 -11 5 -11 10 0 6 2 10 4 10 3 0 8 -4 11 -10z m-110 -31
c-7 -20 -8 -21 -17 -4 -8 12 -7 20 3 26 18 11 22 5 14 -22z m-580 -9 c3 -5 -1
-10 -10 -10 -9 0 -13 5 -10 10 3 6 8 10 10 10 2 0 7 -4 10 -10z m595 -35 c0
-16 -27 -32 -37 -22 -3 4 -3 13 0 22 8 20 37 20 37 0z m190 -36 c0 -5 -7 -9
-15 -9 -15 0 -20 12 -9 23 8 8 24 -1 24 -14z m-260 -90 c0 -5 -7 -9 -15 -9
-15 0 -20 12 -9 23 8 8 24 -1 24 -14z m50 -38 c0 -14 -31 -22 -44 -12 -6 5
-20 11 -31 14 -11 2 1 5 28 6 26 0 47 -3 47 -8z m20 -91 c0 -5 -5 -10 -11 -10
-5 0 -7 5 -4 10 3 6 8 10 11 10 2 0 4 -4 4 -10z m-95 -30 c-3 -5 -10 -10 -16
-10 -5 0 -9 5 -9 10 0 6 7 10 16 10 8 0 12 -4 9 -10z m215 -160 c0 -5 -4 -10
-10 -10 -5 0 -10 5 -10 10 0 6 5 10 10 10 6 0 10 -4 10 -10z m70 -9 c0 -5 -7
-11 -15 -15 -9 -3 -15 0 -15 9 0 8 7 15 15 15 8 0 15 -4 15 -9z m-910 -37 c0
-13 -4 -24 -10 -24 -5 0 -10 14 -10 31 0 17 4 28 10 24 6 -3 10 -17 10 -31z
m3909 27 c8 -5 11 -17 6 -32 -5 -19 -4 -21 5 -9 9 12 10 4 6 -34 -3 -27 -6
-61 -6 -77 0 -19 -6 -30 -20 -34 -11 -3 -19 -9 -19 -13 4 -29 -2 -33 -28 -17
-22 13 -28 23 -27 51 1 19 4 37 8 41 3 3 6 13 6 22 0 18 42 111 50 111 3 0 11
-4 19 -9z m-3124 -11 c8 -13 -20 -24 -42 -16 -15 6 -15 8 -3 16 20 13 37 12
45 0z m55 -20 c0 -5 -5 -10 -11 -10 -5 0 -7 5 -4 10 3 6 8 10 11 10 2 0 4 -4
4 -10z m-30 -44 c0 -11 -19 -15 -25 -6 -3 5 1 10 9 10 9 0 16 -2 16 -4z m45
-97 c0 -8 -6 -13 -12 -11 -7 1 -13 -1 -13 -5 0 -5 -9 -19 -19 -32 l-18 -23 5
30 c4 32 25 47 45 35 7 -4 5 2 -3 12 -13 16 -13 18 0 13 8 -2 15 -11 15 -19z
m27 -114 c-6 -34 -12 -32 -12 6 0 16 4 28 9 25 4 -3 6 -17 3 -31z m3138 -81
c0 -2 -7 -4 -15 -4 -8 0 -15 4 -15 10 0 5 7 7 15 4 8 -4 15 -8 15 -10z m-3059
-71 c-4 -28 -6 -32 -9 -15 -3 22 3 52 11 52 1 0 1 -17 -2 -37z m119 -123 c0
-5 -2 -10 -4 -10 -3 0 -8 5 -11 10 -3 6 -1 10 4 10 6 0 11 -4 11 -10z m-4
-105 c-22 -17 -36 -19 -36 -7 0 14 12 22 34 22 21 -1 21 -1 2 -15z m130 -468
c8 3 14 1 14 -5 0 -6 -8 -9 -17 -8 -10 2 -27 -3 -39 -11 -31 -20 -36 -5 -11
33 l22 33 8 -24 c5 -15 14 -22 23 -18z m-117 -27 c-10 -28 -29 -33 -29 -8 0 8
27 36 37 38 1 0 -3 -13 -8 -30z m39 -49 c-7 -11 -20 -22 -30 -24 -23 -7 -23
-2 4 23 28 25 42 26 26 1z m-248 -191 c0 -5 -4 -10 -10 -10 -5 0 -10 5 -10 10
0 6 5 10 10 10 6 0 10 -4 10 -10z m-42 -98 c9 -6 6 -12 -13 -20 -20 -9 -25 -9
-25 2 0 24 16 32 38 18z m-170 -115 c2 -10 -3 -17 -12 -17 -10 0 -16 9 -16 21
0 24 23 21 28 -4z m5627 -17 c3 -5 1 -10 -4 -10 -6 0 -11 5 -11 10 0 6 2 10 4
10 3 0 8 -4 11 -10z m61 -64 l15 -31 -30 34 c-17 18 -31 38 -31 44 0 16 30
-15 46 -47z m-2217 -2152 c17 -14 31 -33 31 -41 0 -10 -7 -6 -22 12 -12 15
-35 33 -52 41 -26 11 -27 13 -9 14 12 0 35 -12 52 -26z m-86 9 c-7 -2 -19 -2
-25 0 -7 3 -2 5 12 5 14 0 19 -2 13 -5z m-43 -13 c0 -5 -5 -10 -11 -10 -5 0
-7 5 -4 10 3 6 8 10 11 10 2 0 4 -4 4 -10z m-14 -45 c-33 -50 -14 -124 39
-153 17 -10 17 -11 3 -12 -9 0 -29 11 -44 24 -25 21 -27 29 -26 82 1 43 6 62
19 71 25 19 27 16 9 -12z m54 5 c0 -5 -4 -10 -10 -10 -5 0 -10 5 -10 10 0 6 5
10 10 10 6 0 10 -4 10 -10z m20 -60 c0 -5 -4 -10 -10 -10 -5 0 -10 5 -10 10 0
6 5 10 10 10 6 0 10 -4 10 -10z m73 -85 c-10 -7 -29 -16 -43 -20 -21 -6 -19
-3 10 17 19 14 39 23 43 20 5 -2 0 -10 -10 -17z m-20 -1917 c-3 -16 -9 -28
-14 -28 -11 0 -11 3 1 36 13 33 20 29 13 -8z m3751 -2089 c-3 -5 -10 -7 -15
-3 -5 3 -7 10 -3 15 3 5 10 7 15 3 5 -3 7 -10 3 -15z m43 15 c-3 -3 -12 -4
-19 -1 -8 3 -5 6 6 6 11 1 17 -2 13 -5z m13 -650 c0 -8 -19 -13 -24 -6 -3 5 1
9 9 9 8 0 15 -2 15 -3z m30 -123 c0 -6 -4 -13 -10 -16 -5 -3 -10 1 -10 9 0 9
5 16 10 16 6 0 10 -4 10 -9z m270 -401 c0 -5 -12 -10 -27 -9 -25 0 -26 1 -8 9
27 12 35 12 35 0z"/>
<path d="M5954 13213 c10 -11 36 -12 36 -2 0 5 -10 9 -22 9 -12 0 -18 -3 -14
-7z"/>
<path d="M5573 12745 c0 -8 4 -15 9 -15 4 0 8 4 8 9 0 6 -4 12 -8 15 -5 3 -9
-1 -9 -9z"/>
<path d="M1213 12903 c-33 -6 -28 -19 8 -27 45 -9 48 -8 42 14 -5 20 -9 21
-50 13z"/>
<path d="M1280 12850 c0 -5 5 -10 10 -10 6 0 10 5 10 10 0 6 -4 10 -10 10 -5
0 -10 -4 -10 -10z"/>
<path d="M1280 12760 c0 -19 3 -21 12 -12 9 9 9 15 0 24 -9 9 -12 7 -12 -12z"/>
<path d="M1040 12539 c0 -11 5 -17 10 -14 6 3 10 13 10 21 0 8 -4 14 -10 14
-5 0 -10 -9 -10 -21z"/>
<path d="M1170 12440 c0 -11 5 -20 10 -20 6 0 10 9 10 20 0 11 -4 20 -10 20
-5 0 -10 -9 -10 -20z"/>
<path d="M1137 12388 c6 -7 13 -25 17 -40 9 -37 26 -36 26 2 0 19 -7 33 -19
40 -26 14 -36 13 -24 -2z"/>
<path d="M1240 12393 c0 -5 5 -15 10 -23 8 -12 10 -11 10 8 0 12 -4 22 -10 22
-5 0 -10 -3 -10 -7z"/>
<path d="M1200 12330 c0 -5 5 -10 11 -10 5 0 7 5 4 10 -3 6 -8 10 -11 10 -2 0
-4 -4 -4 -10z"/>
<path d="M1220 12240 c0 -13 11 -25 28 -33 15 -6 30 -16 34 -22 4 -5 8 -1 8
10 0 25 -9 36 -37 53 -30 16 -33 15 -33 -8z"/>
<path d="M1128 12233 c7 -3 16 -2 19 1 4 3 -2 6 -13 5 -11 0 -14 -3 -6 -6z"/>
<path d="M1381 12204 c0 -11 3 -14 6 -6 3 7 2 16 -1 19 -3 4 -6 -2 -5 -13z"/>
<path d="M1170 12200 c-12 -8 -10 -10 8 -10 13 0 20 4 17 10 -7 12 -6 12 -25
0z"/>
<path d="M1062 12183 c5 -25 28 -28 28 -4 0 12 -6 21 -16 21 -9 0 -14 -7 -12
-17z"/>
<path d="M960 12180 c0 -5 7 -7 15 -4 8 4 15 8 15 10 0 2 -7 4 -15 4 -8 0 -15
-4 -15 -10z"/>
<path d="M1010 12186 c0 -2 7 -6 15 -10 8 -3 15 -1 15 4 0 6 -7 10 -15 10 -8
0 -15 -2 -15 -4z"/>
<path d="M1321 12171 c-9 -6 -8 -11 4 -21 9 -8 19 -9 25 -4 11 12 -14 34 -29
25z"/>
<path d="M866 12131 c-4 -7 -5 -15 -2 -18 9 -9 19 4 14 18 -4 11 -6 11 -12 0z"/>
<path d="M1020 12118 c0 -7 5 -20 10 -28 8 -12 10 -9 10 13 0 15 -4 27 -10 27
-5 0 -10 -6 -10 -12z"/>
<path d="M1127 12124 c-4 -4 -7 -14 -7 -23 0 -11 3 -12 11 -4 6 6 10 16 7 23
-2 6 -7 8 -11 4z"/>
<path d="M930 12090 c0 -5 -7 -10 -15 -10 -8 0 -15 -4 -15 -10 0 -13 16 -13
41 1 11 5 17 14 14 20 -8 12 -25 12 -25 -1z"/>
<path d="M1292 12079 c-15 -6 -22 -16 -21 -31 2 -22 2 -22 6 -2 3 17 10 21 38
18 19 -1 37 1 40 6 7 11 -38 18 -63 9z"/>
<path d="M1190 12070 c-8 -5 -25 -10 -37 -10 -28 0 -30 -20 -3 -43 21 -18 40
-22 40 -9 0 4 9 8 20 9 11 1 20 -2 20 -8 0 -5 4 -9 10 -9 6 0 6 9 1 23 -5 13
-15 21 -26 19 -14 -3 -16 1 -12 17 3 12 4 21 4 21 -1 0 -9 -5 -17 -10z"/>
<path d="M862 12050 c0 -14 2 -19 5 -12 2 6 2 18 0 25 -3 6 -5 1 -5 -13z"/>
<path d="M927 12049 c-14 -8 -15 -14 -6 -31 6 -12 11 -39 11 -60 -1 -32 4 -41
24 -50 31 -15 40 -5 20 23 -11 16 -12 27 -5 41 8 15 7 23 -8 33 -14 11 -16 16
-5 26 26 27 5 39 -31 18z"/>
<path d="M1036 12044 c-9 -23 -4 -24 17 -2 13 14 14 18 3 18 -8 0 -17 -7 -20
-16z"/>
<path d="M1160 11899 c12 -21 25 -25 35 -8 9 13 3 19 -24 24 -18 3 -20 1 -11
-16z"/>
<path d="M1331 11904 c0 -11 3 -14 6 -6 3 7 2 16 -1 19 -3 4 -6 -2 -5 -13z"/>
<path d="M1530 11871 c0 -8 -6 -11 -16 -7 -9 3 -12 2 -9 -4 4 -7 -3 -9 -19 -6
-14 3 -28 2 -30 -2 -2 -4 11 -8 29 -9 32 -2 65 20 51 34 -3 3 -6 1 -6 -6z"/>
<path d="M951 11854 c0 -11 3 -14 6 -6 3 7 2 16 -1 19 -3 4 -6 -2 -5 -13z"/>
<path d="M971 11841 c-15 -27 -14 -31 9 -31 22 0 28 -26 8 -33 -7 -2 -10 -7
-7 -11 11 -12 37 5 41 28 3 15 -3 31 -18 45 -23 22 -23 22 -33 2z"/>
<path d="M1425 11850 c-3 -5 -1 -10 4 -10 6 0 11 5 11 10 0 6 -2 10 -4 10 -3
0 -8 -4 -11 -10z"/>
<path d="M1005 11750 c4 -6 11 -8 16 -5 14 9 11 15 -7 15 -8 0 -12 -5 -9 -10z"/>
<path d="M1520 11675 c0 -17 16 -20 25 -5 4 6 11 7 17 4 7 -4 8 -2 4 4 -10 17
-46 15 -46 -3z"/>
<path d="M1031 11654 c0 -11 3 -14 6 -6 3 7 2 16 -1 19 -3 4 -6 -2 -5 -13z"/>
<path d="M880 11610 c0 -5 5 -10 11 -10 5 0 7 5 4 10 -3 6 -8 10 -11 10 -2 0
-4 -4 -4 -10z"/>
<path d="M1576 11575 c-3 -9 1 -23 9 -31 13 -14 15 -13 15 3 0 10 -4 24 -9 31
-7 11 -9 10 -15 -3z"/>
<path d="M880 11525 c0 -14 4 -25 9 -25 5 0 9 11 9 25 0 14 -4 25 -9 25 -5 0
-9 -11 -9 -25z"/>
<path d="M1601 11468 c-1 -10 -8 -19 -16 -19 -35 -3 -40 -6 -37 -17 2 -10 -3
-10 -19 -1 -17 9 -20 8 -14 -2 6 -9 3 -10 -10 -5 -14 5 -16 4 -7 -7 7 -8 9
-17 5 -20 -3 -4 -1 -7 5 -7 7 0 12 8 13 18 0 9 3 12 5 5 3 -7 11 -10 19 -7 19
8 55 -14 56 -34 0 -9 5 -4 10 12 5 19 5 34 -2 42 -6 7 -6 14 -1 16 5 1 6 12 1
23 -6 17 -8 17 -8 3z"/>
<path d="M1715 11410 c-10 -11 -15 -23 -12 -27 4 -3 7 0 7 8 1 10 5 9 15 -5 8
-10 12 -24 8 -30 -3 -6 -2 -8 2 -3 11 9 14 66 5 72 -4 3 -15 -4 -25 -15z m22
-5 c0 -8 -4 -12 -9 -9 -5 3 -6 10 -3 15 9 13 12 11 12 -6z"/>
<path d="M1640 11416 c0 -9 30 -14 35 -6 4 6 -3 10 -14 10 -12 0 -21 -2 -21
-4z"/>
<path d="M895 11210 c-3 -5 -1 -10 4 -10 6 0 11 5 11 10 0 6 -2 10 -4 10 -3 0
-8 -4 -11 -10z"/>
<path d="M1707 11163 c-9 -9 6 -43 19 -43 7 0 18 -8 23 -17 8 -15 10 -11 11
20 0 20 -3 37 -7 38 -5 0 -16 2 -25 4 -9 2 -19 1 -21 -2z"/>
<path d="M1853 11035 c0 -8 4 -12 9 -9 5 3 6 10 3 15 -9 13 -12 11 -12 -6z"/>
<path d="M1869 10867 c12 -15 12 -17 -3 -11 -9 3 -23 3 -32 0 -24 -9 3 -38 28
-30 10 3 26 0 34 -7 8 -6 17 -9 21 -6 3 4 -2 9 -11 13 -9 3 -16 12 -16 20 0 8
6 11 15 8 8 -4 15 -1 15 5 0 6 -6 11 -14 11 -8 0 -23 3 -33 7 -16 6 -16 5 -4
-10z"/>
<path d="M906 10332 c-3 -6 -1 -14 5 -17 14 -9 20 -2 10 14 -6 8 -11 9 -15 3z"/>
<path d="M1412 10220 c-15 -24 -16 -40 -2 -40 6 0 10 7 10 15 0 8 5 15 10 15
6 0 10 7 10 15 0 21 -13 19 -28 -5z"/>
<path d="M1457 10233 c-13 -12 -7 -43 8 -43 9 0 15 9 15 25 0 24 -10 32 -23
18z"/>
<path d="M1360 10200 c0 -5 5 -10 10 -10 6 0 10 5 10 10 0 6 -4 10 -10 10 -5
0 -10 -4 -10 -10z"/>
<path d="M957 10023 c-12 -11 -8 -21 13 -26 11 -3 19 -11 17 -19 -2 -7 -2 -10
0 -5 3 4 8 5 13 2 4 -3 13 2 20 10 10 12 7 15 -17 21 -15 4 -31 11 -34 16 -3
4 -8 5 -12 1z"/>
<path d="M936 9924 c-9 -24 -8 -26 14 -14 11 6 18 15 15 21 -9 14 -22 11 -29
-7z"/>
<path d="M1050 9930 c0 -5 5 -10 10 -10 6 0 10 5 10 10 0 6 -4 10 -10 10 -5 0
-10 -4 -10 -10z"/>
<path d="M1095 9930 c-3 -5 -1 -10 4 -10 6 0 11 5 11 10 0 6 -2 10 -4 10 -3 0
-8 -4 -11 -10z"/>
<path d="M1341 9896 c-9 -10 -8 -16 4 -26 13 -11 15 -8 15 14 0 30 -3 32 -19
12z"/>
<path d="M1242 9863 c-17 -7 -5 -23 19 -23 10 0 19 7 19 15 0 15 -14 18 -38 8z"/>
<path d="M1236 9812 c-2 -4 6 -8 20 -8 13 0 24 4 24 8 0 4 -9 8 -19 8 -11 0
-22 -4 -25 -8z"/>
<path d="M910 9761 c0 -17 5 -31 10 -31 6 0 10 11 10 24 0 14 -4 28 -10 31 -6
4 -10 -7 -10 -24z"/>
<path d="M917 16950 c3 -11 7 -20 9 -20 2 0 4 9 4 20 0 11 -4 20 -9 20 -5 0
-7 -9 -4 -20z"/>
<path d="M850 16625 c0 -9 5 -15 11 -13 6 2 11 8 11 13 0 5 -5 11 -11 13 -6 2
-11 -4 -11 -13z"/>
<path d="M762 16379 c-1 -9 -5 -32 -8 -50 -4 -28 -3 -31 6 -16 6 9 9 32 7 50
-2 17 -5 25 -5 16z"/>
<path d="M756 16054 c4 -27 11 -56 16 -64 8 -14 6 28 -5 82 -8 41 -17 27 -11
-18z"/>
<path d="M766 15952 c-2 -4 -1 -14 5 -22 7 -12 9 -10 9 8 0 23 -5 28 -14 14z"/>
<path d="M760 15886 c0 -14 5 -26 10 -26 6 0 10 9 10 19 0 11 -4 23 -10 26 -6
4 -10 -5 -10 -19z"/>
<path d="M2270 15591 c0 -13 9 -20 30 -23 24 -4 30 -1 25 9 -3 8 -5 19 -5 24
0 5 -11 9 -25 9 -18 0 -25 -5 -25 -19z"/>
<path d="M2255 15439 c-12 -18 3 -22 20 -5 14 14 14 16 1 16 -8 0 -18 -5 -21
-11z"/>
<path d="M1818 15363 c7 -3 16 -2 19 1 4 3 -2 6 -13 5 -11 0 -14 -3 -6 -6z"/>
<path d="M2865 15340 c-3 -5 -1 -10 4 -10 6 0 11 5 11 10 0 6 -2 10 -4 10 -3
0 -8 -4 -11 -10z"/>
<path d="M892 15285 c1 -32 15 -45 31 -29 9 9 -4 35 -14 28 -5 -3 -9 0 -9 5 0
6 5 11 11 11 5 0 7 5 4 10 -13 21 -24 9 -23 -25z"/>
<path d="M2185 15311 c-9 -16 9 -20 23 -5 10 12 10 14 -2 14 -8 0 -17 -4 -21
-9z"/>
<path d="M2600 15190 c0 -34 5 -37 27 -15 17 18 11 45 -12 45 -10 0 -15 -10
-15 -30z"/>
<path d="M1688 15193 c7 -3 16 -2 19 1 4 3 -2 6 -13 5 -11 0 -14 -3 -6 -6z"/>
<path d="M2360 15190 c0 -5 -5 -9 -11 -7 -7 1 -18 -13 -25 -30 -16 -38 -4 -43
23 -10 10 13 24 22 31 19 7 -2 12 5 12 17 0 12 -6 21 -15 21 -8 0 -15 -4 -15
-10z"/>
<path d="M2830 15164 c0 -17 22 -14 28 4 2 7 -3 12 -12 12 -9 0 -16 -7 -16
-16z"/>
<path d="M1927 15163 c-3 -5 -1 -17 4 -28 7 -17 8 -17 8 8 1 27 -4 34 -12 20z"/>
<path d="M2460 15140 c0 -5 7 -10 15 -10 8 0 15 5 15 10 0 6 -7 10 -15 10 -8
0 -15 -4 -15 -10z"/>
<path d="M1738 15113 c7 -3 16 -2 19 1 4 3 -2 6 -13 5 -11 0 -14 -3 -6 -6z"/>
<path d="M900 15051 c0 -6 4 -13 10 -16 6 -3 7 1 4 9 -7 18 -14 21 -14 7z"/>
<path d="M1328 15043 c7 -3 16 -2 19 1 4 3 -2 6 -13 5 -11 0 -14 -3 -6 -6z"/>
<path d="M2960 15020 c0 -5 5 -10 10 -10 6 0 10 5 10 10 0 6 -4 10 -10 10 -5
0 -10 -4 -10 -10z"/>
<path d="M1840 15000 c-8 -5 -10 -10 -5 -10 6 0 20 -3 33 -6 16 -5 22 -2 22
10 0 18 -27 21 -50 6z"/>
<path d="M4920 14974 c-10 -11 -10 -14 1 -14 8 0 20 4 27 9 11 7 11 9 -1 14
-9 3 -21 -1 -27 -9z"/>
<path d="M2465 14970 c-3 -5 -1 -10 4 -10 6 0 11 5 11 10 0 6 -2 10 -4 10 -3
0 -8 -4 -11 -10z"/>
<path d="M2785 14970 c-3 -5 -1 -10 4 -10 6 0 11 5 11 10 0 6 -2 10 -4 10 -3
0 -8 -4 -11 -10z"/>
<path d="M1896 14945 c4 -8 8 -15 10 -15 2 0 4 7 4 15 0 8 -4 15 -10 15 -5 0
-7 -7 -4 -15z"/>
<path d="M1920 14940 c0 -6 7 -10 15 -10 8 0 15 2 15 4 0 2 -7 6 -15 10 -8 3
-15 1 -15 -4z"/>
<path d="M4930 14940 c0 -5 5 -10 11 -10 5 0 7 5 4 10 -3 6 -8 10 -11 10 -2 0
-4 -4 -4 -10z"/>
<path d="M4815 14910 c-4 -6 0 -19 8 -28 12 -13 13 -22 5 -35 -5 -10 -8 -20
-6 -22 2 -2 11 9 20 25 9 16 14 29 10 29 -18 -3 -26 2 -14 10 10 6 10 10 -2
20 -10 9 -16 9 -21 1z"/>
<path d="M1021 14895 c1 -19 18 -51 18 -35 0 8 -4 22 -9 30 -5 8 -9 11 -9 5z"/>
<path d="M880 14875 c0 -8 4 -15 10 -15 5 0 7 7 4 15 -4 8 -8 15 -10 15 -2 0
-4 -7 -4 -15z"/>
<path d="M2465 14880 c-13 -6 -15 -9 -5 -9 8 0 22 4 30 9 18 12 2 12 -25 0z"/>
<path d="M2390 14863 c0 -4 5 -15 10 -23 8 -13 10 -13 10 2 0 9 -4 20 -10 23
-5 3 -10 3 -10 -2z"/>
<path d="M4859 14853 c-13 -16 -12 -17 4 -4 16 13 21 21 13 21 -2 0 -10 -8
-17 -17z"/>
<path d="M1541 14844 c0 -11 3 -14 6 -6 3 7 2 16 -1 19 -3 4 -6 -2 -5 -13z"/>
<path d="M1586 14845 c4 -8 8 -15 10 -15 2 0 4 7 4 15 0 8 -4 15 -10 15 -5 0
-7 -7 -4 -15z"/>
<path d="M1780 14830 c0 -5 5 -10 11 -10 5 0 7 5 4 10 -3 6 -8 10 -11 10 -2 0
-4 -4 -4 -10z"/>
<path d="M2000 14824 c0 -8 5 -12 10 -9 6 4 8 11 5 16 -9 14 -15 11 -15 -7z"/>
<path d="M5031 14814 c0 -11 3 -14 6 -6 3 7 2 16 -1 19 -3 4 -6 -2 -5 -13z"/>
<path d="M3060 14785 c-7 -8 -16 -12 -21 -9 -5 3 -6 -2 -3 -10 4 -11 0 -16
-10 -16 -9 0 -16 -5 -16 -11 0 -6 7 -9 15 -5 8 3 15 2 15 -2 0 -13 54 -8 63 6
5 7 1 22 -11 37 -17 21 -21 23 -32 10z"/>
<path d="M3270 14791 c0 -5 5 -13 10 -16 6 -3 10 -2 10 4 0 5 -4 13 -10 16 -5
3 -10 2 -10 -4z"/>
<path d="M832 14738 c6 -18 28 -21 28 -4 0 9 -7 16 -16 16 -9 0 -14 -5 -12
-12z"/>
<path d="M2975 14730 c-3 -5 -1 -10 4 -10 6 0 11 5 11 10 0 6 -2 10 -4 10 -3
0 -8 -4 -11 -10z"/>
<path d="M4765 14681 c-8 -27 -2 -36 13 -18 6 7 7 18 3 26 -7 10 -10 8 -16 -8z"/>
<path d="M2915 14680 c-3 -5 1 -10 10 -10 9 0 13 5 10 10 -3 6 -8 10 -10 10
-2 0 -7 -4 -10 -10z"/>
<path d="M2620 14656 c0 -9 -7 -16 -16 -16 -8 0 -13 -4 -10 -9 8 -12 57 11 53
23 -6 17 -27 18 -27 2z"/>
<path d="M960 14650 c0 -5 5 -10 10 -10 6 0 10 5 10 10 0 6 -4 10 -10 10 -5 0
-10 -4 -10 -10z"/>
<path d="M1510 14626 c0 -9 5 -16 10 -16 6 0 10 4 10 9 0 6 -4 13 -10 16 -5 3
-10 -1 -10 -9z"/>
<path d="M3055 14630 c3 -5 8 -10 11 -10 2 0 4 5 4 10 0 6 -5 10 -11 10 -5 0
-7 -4 -4 -10z"/>
<path d="M4737 14622 c3 -12 9 -25 14 -28 14 -8 11 10 -6 32 -13 18 -14 18 -8
-4z"/>
<path d="M895 14620 c3 -5 8 -10 11 -10 2 0 4 5 4 10 0 6 -5 10 -11 10 -5 0
-7 -4 -4 -10z"/>
<path d="M984 14617 c-8 -22 7 -40 29 -35 14 3 14 6 -3 28 -17 23 -19 23 -26
7z"/>
<path d="M2164 14608 c3 -7 9 -21 12 -30 4 -10 13 -18 20 -18 18 0 18 5 -2 35
-17 25 -40 35 -30 13z"/>
<path d="M2552 14585 c0 -16 2 -22 5 -12 2 9 2 23 0 30 -3 6 -5 -1 -5 -18z"/>
<path d="M1040 14580 c0 -19 3 -21 12 -12 9 9 9 15 0 24 -9 9 -12 7 -12 -12z"/>
<path d="M878 14574 c-7 -7 3 -54 12 -54 4 0 12 -11 18 -25 6 -14 17 -25 24
-24 10 0 10 2 1 6 -7 2 -13 13 -13 24 0 10 -4 19 -10 19 -5 0 -10 11 -10 24 0
24 -12 41 -22 30z"/>
<path d="M1935 14550 c3 -5 8 -10 11 -10 2 0 4 5 4 10 0 6 -5 10 -11 10 -5 0
-7 -4 -4 -10z"/>
<path d="M2717 14540 c3 -11 7 -20 9 -20 2 0 4 9 4 20 0 11 -4 20 -9 20 -5 0
-7 -9 -4 -20z"/>
<path d="M3034 14545 c-11 -27 2 -37 14 -11 7 16 8 26 1 26 -5 0 -12 -7 -15
-15z"/>
<path d="M1373 14543 c-7 -3 -13 -12 -13 -20 0 -9 6 -13 15 -9 8 3 15 1 15 -4
0 -6 7 -10 15 -10 8 0 15 7 15 15 0 17 -29 34 -47 28z"/>
<path d="M2305 14540 c-3 -5 -1 -10 4 -10 6 0 11 5 11 10 0 6 -2 10 -4 10 -3
0 -8 -4 -11 -10z"/>
<path d="M1026 14531 c-3 -4 5 -17 17 -28 39 -34 46 -36 34 -9 -13 27 -44 50
-51 37z"/>
<path d="M3155 14530 c3 -5 8 -10 11 -10 2 0 4 5 4 10 0 6 -5 10 -11 10 -5 0
-7 -4 -4 -10z"/>
<path d="M2755 14490 c-3 -5 -1 -10 4 -10 6 0 11 5 11 10 0 6 -2 10 -4 10 -3
0 -8 -4 -11 -10z"/>
<path d="M4678 14467 c7 -8 7 -18 2 -27 -5 -8 -6 -18 -3 -23 3 -4 -3 -17 -13
-28 -18 -20 -29 -73 -12 -63 14 9 9 -13 -6 -26 -25 -20 -5 -53 35 -58 19 -2
32 -2 29 0 -3 2 -14 10 -24 18 -16 12 -18 12 -11 1 6 -10 4 -12 -4 -7 -7 5
-10 14 -7 21 3 8 0 16 -7 19 -9 3 -9 5 1 5 6 1 12 8 12 17 0 8 5 12 10 9 6 -3
13 1 16 9 3 9 11 13 18 9 8 -5 7 -2 -1 8 -6 8 -10 27 -9 42 2 15 -1 30 -5 33
-14 8 -10 26 4 18 6 -4 3 2 -7 14 -20 23 -36 31 -18 9z m16 -101 c-1 -12 -3
-24 -3 -27 -1 -3 -8 -6 -16 -6 -14 0 -22 37 -10 49 13 13 31 3 29 -16z"/>
<path d="M4671 14364 c0 -11 3 -14 6 -6 3 7 2 16 -1 19 -3 4 -6 -2 -5 -13z"/>
<path d="M835 14460 c3 -5 13 -10 21 -10 8 0 12 5 9 10 -3 6 -13 10 -21 10 -8
0 -12 -4 -9 -10z"/>
<path d="M1170 14445 c0 -8 5 -15 10 -15 6 0 10 7 10 15 0 8 -4 15 -10 15 -5
0 -10 -7 -10 -15z"/>
<path d="M2918 14453 c7 -3 16 -2 19 1 4 3 -2 6 -13 5 -11 0 -14 -3 -6 -6z"/>
<path d="M953 14443 c-18 -7 -16 -23 2 -23 8 0 15 7 15 15 0 8 -1 15 -2 14 -2
0 -9 -3 -15 -6z"/>
<path d="M3020 14430 c0 -5 5 -10 11 -10 5 0 7 5 4 10 -3 6 -8 10 -11 10 -2 0
-4 -4 -4 -10z"/>
<path d="M996 14398 c-3 -13 -1 -27 4 -32 7 -7 10 -3 11 10 0 14 3 13 10 -8 7
-18 15 -25 26 -21 11 4 14 0 11 -18 -2 -15 2 -24 11 -24 8 0 14 14 16 38 1 25
-2 37 -12 37 -7 0 -13 6 -13 14 0 14 -21 26 -45 26 -7 0 -15 -10 -19 -22z"/>
<path d="M2215 14410 c-3 -5 1 -10 9 -10 9 0 16 5 16 10 0 6 -4 10 -9 10 -6 0
-13 -4 -16 -10z"/>
<path d="M1948 14403 c7 -3 16 -2 19 1 4 3 -2 6 -13 5 -11 0 -14 -3 -6 -6z"/>
<path d="M1980 14391 c0 -17 18 -21 24 -6 3 9 0 15 -9 15 -8 0 -15 -4 -15 -9z"/>
<path d="M2456 14391 c-8 -13 4 -42 15 -35 5 3 9 0 9 -5 0 -6 7 -11 15 -11 8
0 15 7 15 15 0 8 -7 15 -15 15 -8 0 -15 7 -15 15 0 17 -16 20 -24 6z"/>
<path d="M1643 14383 c-7 -2 -13 -9 -13 -14 0 -14 26 -10 40 6 10 12 10 15 -1
14 -8 0 -20 -3 -26 -6z"/>
<path d="M2916 14361 c-4 -5 -2 -12 3 -15 5 -4 12 -2 15 3 4 5 2 12 -3 15 -5
4 -12 2 -15 -3z"/>
<path d="M2646 14343 c-13 -13 -4 -18 31 -18 20 0 38 5 40 10 3 11 -61 18 -71
8z"/>
<path d="M2810 14336 c0 -21 28 -39 47 -31 12 5 14 9 6 12 -7 3 -13 11 -13 19
0 8 -9 14 -20 14 -11 0 -20 -6 -20 -14z"/>
<path d="M1558 14305 c3 -19 8 -23 17 -15 6 5 15 7 18 3 4 -3 7 1 7 11 0 9 -4
15 -9 11 -5 -3 -12 -1 -16 5 -12 19 -22 10 -17 -15z"/>
<path d="M990 14310 c0 -5 5 -10 10 -10 6 0 10 5 10 10 0 6 -4 10 -10 10 -5 0
-10 -4 -10 -10z"/>
<path d="M1100 14306 c0 -32 13 -46 42 -46 19 0 28 4 25 13 -2 6 -14 11 -26 9
-18 -2 -21 2 -16 18 5 14 2 20 -9 20 -9 0 -16 -6 -16 -14z"/>
<path d="M1798 14313 c6 -2 18 -2 25 0 6 3 1 5 -13 5 -14 0 -19 -2 -12 -5z"/>
<path d="M2211 14304 c0 -11 3 -14 6 -6 3 7 2 16 -1 19 -3 4 -6 -2 -5 -13z"/>
<path d="M2311 14309 c0 -9 -10 -19 -21 -22 -22 -6 -24 -14 -10 -37 8 -13 11
-12 25 5 15 20 16 20 31 -2 9 -13 27 -23 39 -23 20 0 23 5 23 36 0 37 -7 39
-61 18 -11 -4 -17 2 -20 18 -2 13 -5 16 -6 7z"/>
<path d="M1170 14306 c0 -2 7 -6 15 -10 8 -3 15 -1 15 4 0 6 -7 10 -15 10 -8
0 -15 -2 -15 -4z"/>
<path d="M1461 14301 c-9 -6 -10 -11 -2 -15 15 -10 53 3 46 15 -8 11 -26 11
-44 0z"/>
<path d="M1415 14290 c3 -5 8 -10 11 -10 2 0 4 5 4 10 0 6 -5 10 -11 10 -5 0
-7 -4 -4 -10z"/>
<path d="M6837 14283 c-2 -5 0 -21 4 -38 7 -29 7 -29 8 8 1 35 -3 46 -12 30z"/>
<path d="M2961 14265 c-1 -25 15 -52 26 -42 4 5 2 11 -4 15 -6 4 -13 16 -16
27 l-5 20 -1 -20z"/>
<path d="M2468 14253 c-23 -6 -23 -25 1 -45 19 -16 20 -16 23 5 2 14 10 21 21
21 14 -2 15 1 6 12 -12 14 -20 15 -51 7z"/>
<path d="M2547 14254 c-3 -5 1 -15 9 -22 16 -14 18 -5 5 17 -5 7 -11 9 -14 5z"/>
<path d="M4720 14250 c0 -5 5 -10 11 -10 5 0 7 5 4 10 -3 6 -8 10 -11 10 -2 0
-4 -4 -4 -10z"/>
<path d="M1168 14243 c7 -3 16 -2 19 1 4 3 -2 6 -13 5 -11 0 -14 -3 -6 -6z"/>
<path d="M1891 14224 c0 -11 3 -14 6 -6 3 7 2 16 -1 19 -3 4 -6 -2 -5 -13z"/>
<path d="M4625 14231 c-3 -5 -1 -12 5 -16 5 -3 10 1 10 9 0 18 -6 21 -15 7z"/>
<path d="M2080 14211 c-23 -13 -35 -27 -36 -41 -1 -19 2 -21 30 -16 45 9 82
63 50 72 -5 2 -25 -5 -44 -15z"/>
<path d="M2205 14200 c4 -6 11 -8 16 -5 14 9 11 15 -7 15 -8 0 -12 -5 -9 -10z"/>
<path d="M2540 14201 c0 -6 5 -13 10 -16 6 -3 10 1 10 9 0 9 -4 16 -10 16 -5
0 -10 -4 -10 -9z"/>
<path d="M1540 14190 c0 -5 5 -10 10 -10 6 0 10 5 10 10 0 6 -4 10 -10 10 -5
0 -10 -4 -10 -10z"/>
<path d="M2690 14175 c0 -9 5 -15 11 -13 6 2 11 8 11 13 0 5 -5 11 -11 13 -6
2 -11 -4 -11 -13z"/>
<path d="M1436 14167 c3 -10 9 -15 12 -12 3 3 0 11 -7 18 -10 9 -11 8 -5 -6z"/>
<path d="M1656 14143 c-8 -19 6 -36 31 -39 10 -1 33 -5 51 -9 30 -7 32 -6 32
20 0 16 -3 26 -6 23 -3 -4 -21 0 -39 8 -45 18 -61 18 -69 -3z"/>
<path d="M2764 14138 c-6 -10 -7 -9 29 -14 18 -2 27 1 25 8 -5 14 -47 18 -54
6z"/>
<path d="M1485 14130 c4 -6 11 -8 16 -5 14 9 11 15 -7 15 -8 0 -12 -5 -9 -10z"/>
<path d="M2190 14125 c-7 -8 -18 -15 -25 -15 -7 0 -15 -7 -19 -15 -3 -9 0 -15
8 -15 8 0 16 -7 20 -15 8 -21 20 -19 55 12 38 33 38 37 6 51 -32 15 -30 15
-45 -3z"/>
<path d="M1440 14110 c0 -5 5 -10 10 -10 6 0 10 5 10 10 0 6 -4 10 -10 10 -5
0 -10 -4 -10 -10z"/>
<path d="M2360 14097 c9 -7 14 -20 12 -29 -2 -11 3 -18 11 -18 17 0 17 29 0
48 -6 6 -18 12 -25 12 -10 -1 -9 -4 2 -13z"/>
<path d="M1157 14094 c-13 -13 -7 -23 23 -39 29 -15 30 -15 30 7 0 19 -2 20
-10 8 -9 -15 -11 -13 -14 12 -1 14 -20 21 -29 12z"/>
<path d="M2618 14092 c-17 -7 -16 -8 2 -20 17 -11 20 -10 20 8 0 11 -1 20 -2
19 -2 0 -11 -4 -20 -7z"/>
<path d="M2420 14069 c0 -5 5 -7 10 -4 6 3 10 8 10 11 0 2 -4 4 -10 4 -5 0
-10 -5 -10 -11z"/>
<path d="M4594 14072 c4 -3 14 -7 22 -8 9 -1 13 0 10 4 -4 3 -14 7 -22 8 -9 1
-13 0 -10 -4z"/>
<path d="M1276 14054 c-9 -22 -8 -24 9 -24 8 0 15 6 15 14 0 22 -17 28 -24 10z"/>
<path d="M1537 14045 c24 -33 52 -33 45 0 -3 20 -10 25 -34 25 l-29 0 18 -25z"/>
<path d="M2117 14054 c-10 -10 -9 -44 2 -44 13 0 23 32 13 42 -5 5 -11 5 -15
2z"/>
<path d="M2310 14050 c-9 -6 -10 -10 -3 -10 6 0 14 -10 16 -22 3 -17 5 -14 6
10 1 36 2 35 -19 22z"/>
<path d="M1230 14038 c0 -19 26 -48 43 -48 8 0 9 3 1 8 -5 4 -18 18 -27 32
-12 18 -17 20 -17 8z"/>
<path d="M1318 14018 c2 -10 7 -18 11 -18 4 0 7 8 8 18 1 10 -4 19 -11 19 -8
0 -11 -8 -8 -19z"/>
<path d="M2000 14030 c0 -5 7 -10 16 -10 8 0 12 5 9 10 -3 6 -10 10 -16 10 -5
0 -9 -4 -9 -10z"/>
<path d="M1352 14000 c-11 -17 -10 -23 3 -36 8 -9 15 -20 15 -26 0 -5 7 -8 15
-4 10 3 15 -1 15 -12 1 -31 45 -73 50 -47 1 6 8 17 16 26 10 11 12 26 8 49 -6
29 -9 31 -19 16 -15 -20 -29 -21 -22 -2 4 10 -2 16 -16 18 -12 2 -22 10 -22
18 0 23 -29 23 -43 0z"/>
<path d="M2067 14000 c3 -11 7 -20 9 -20 2 0 4 9 4 20 0 11 -4 20 -9 20 -5 0
-7 -9 -4 -20z"/>
<path d="M1190 13990 c0 -11 2 -20 4 -20 2 0 6 9 9 20 3 11 1 20 -4 20 -5 0
-9 -9 -9 -20z"/>
<path d="M1752 13983 c4 -21 33 -25 33 -3 0 8 -8 16 -18 18 -14 3 -18 -1 -15
-15z"/>
<path d="M2175 13990 c-3 -5 -12 -7 -19 -4 -23 9 -28 -14 -6 -26 17 -9 22 -8
27 7 4 10 11 21 17 25 8 5 7 8 -1 8 -6 0 -14 -4 -18 -10z"/>
<path d="M2216 13962 c-15 -14 -3 -31 25 -37 36 -8 43 -3 35 22 -5 17 -48 28
-60 15z"/>
<path d="M2520 13964 c0 -3 5 -14 10 -25 9 -16 7 -19 -8 -19 -12 0 -23 9 -27
23 -5 16 -8 18 -12 7 -11 -28 -36 -50 -58 -50 -37 0 -49 -24 -30 -57 9 -15 14
-20 11 -10 -4 13 0 17 20 17 13 0 27 7 30 15 8 21 21 19 27 -5 3 -12 0 -20 -8
-20 -18 0 -28 -31 -15 -44 8 -8 13 -7 19 3 6 10 20 12 45 8 30 -5 36 -3 36 12
0 10 -11 24 -25 31 -23 12 -36 50 -17 50 4 0 15 7 25 14 15 12 16 18 7 35 -10
19 -30 29 -30 15z"/>
<path d="M1580 13915 c0 -8 5 -15 10 -15 6 0 10 7 10 15 0 8 -4 15 -10 15 -5
0 -10 -7 -10 -15z"/>
<path d="M2065 13910 c-4 -6 -3 -16 3 -22 13 -13 23 4 13 21 -7 10 -10 10 -16
1z"/>
<path d="M2358 13908 c9 -9 15 -9 24 0 9 9 7 12 -12 12 -19 0 -21 -3 -12 -12z"/>
<path d="M1360 13881 c0 -11 4 -21 9 -21 18 0 21 18 6 30 -13 10 -15 9 -15 -9z"/>
<path d="M2590 13886 c0 -9 5 -16 10 -16 6 0 10 4 10 9 0 6 -4 13 -10 16 -5 3
-10 -1 -10 -9z"/>
<path d="M4485 13881 c-3 -5 -2 -12 3 -15 5 -3 9 1 9 9 0 17 -3 19 -12 6z"/>
<path d="M1485 13860 c3 -5 8 -10 11 -10 2 0 4 5 4 10 0 6 -5 10 -11 10 -5 0
-7 -4 -4 -10z"/>
<path d="M2104 13863 c10 -11 36 -12 36 -2 0 5 -10 9 -22 9 -12 0 -18 -3 -14
-7z"/>
<path d="M2330 13856 c0 -9 7 -16 16 -16 9 0 14 5 12 12 -6 18 -28 21 -28 4z"/>
<path d="M1217 13854 c-10 -10 20 -34 42 -34 26 0 27 9 4 26 -20 15 -36 17
-46 8z"/>
<path d="M1117 13839 c7 -7 15 -10 18 -7 3 3 -2 9 -12 12 -14 6 -15 5 -6 -5z"/>
<path d="M1551 13839 c-24 -5 -48 -6 -54 -2 -6 3 -2 -6 9 -20 10 -15 25 -27
32 -27 6 0 12 -7 12 -15 0 -8 5 -15 10 -15 6 0 10 12 10 27 0 14 7 35 17 45 9
10 14 18 12 17 -2 -1 -24 -5 -48 -10z"/>
<path d="M2143 13827 c-13 -29 0 -57 27 -57 11 0 20 5 20 10 0 6 -7 10 -15 10
-8 0 -15 5 -15 10 0 13 10 12 40 -5 32 -18 40 -18 40 -2 0 19 -30 43 -61 50
-21 5 -28 2 -36 -16z"/>
<path d="M1410 13830 c0 -5 5 -10 10 -10 6 0 10 5 10 10 0 6 -4 10 -10 10 -5
0 -10 -4 -10 -10z"/>
<path d="M1730 13830 c0 -5 4 -10 9 -10 6 0 13 5 16 10 3 6 -1 10 -9 10 -9 0
-16 -4 -16 -10z"/>
<path d="M2081 13824 c0 -11 3 -14 6 -6 3 7 2 16 -1 19 -3 4 -6 -2 -5 -13z"/>
<path d="M2000 13800 c0 -6 -10 -8 -24 -4 -13 3 -27 1 -30 -5 -5 -7 3 -11 22
-11 27 0 72 -31 72 -50 0 -6 5 -10 10 -10 17 0 11 30 -11 61 -20 29 -39 38
-39 19z"/>
<path d="M2585 13768 c-10 -13 -15 -30 -12 -47 5 -23 4 -24 -8 -7 -8 10 -12
23 -11 29 2 7 1 9 -1 5 -3 -5 -16 -8 -29 -8 -17 0 -27 -8 -35 -26 -5 -15 -7
-29 -4 -32 3 -3 5 0 5 6 0 15 37 16 45 1 4 -6 14 -8 22 -5 8 3 11 1 8 -4 -3
-6 1 -10 9 -10 9 0 13 6 10 13 -3 8 3 24 14 37 16 19 22 21 40 11 26 -14 27
-12 7 25 -17 34 -37 38 -60 12z"/>
<path d="M1237 13768 c-10 -32 35 -83 47 -52 3 8 -1 14 -9 14 -9 0 -15 10 -15
25 0 26 -15 34 -23 13z"/>
<path d="M1895 13771 c-3 -5 -1 -12 5 -16 12 -7 30 2 30 16 0 12 -27 12 -35 0z"/>
<path d="M2407 13767 c-3 -9 -2 -19 3 -22 6 -4 10 -14 10 -24 0 -23 28 -48 39
-35 13 15 20 69 11 84 -5 8 -13 11 -17 6 -4 -5 -2 -11 5 -13 19 -7 14 -23 -8
-23 -12 0 -24 9 -29 22 -6 18 -9 19 -14 5z"/>
<path d="M1768 13735 c-21 -28 -23 -39 -6 -29 8 5 9 2 5 -10 -6 -16 -2 -17 45
-11 29 4 55 9 58 12 11 10 -35 33 -53 27 -16 -5 -19 -3 -14 15 7 29 -14 26
-35 -4z"/>
<path d="M1403 13743 c-23 -3 -33 -10 -33 -21 0 -15 -2 -15 -10 -2 -7 11 -12
12 -21 3 -16 -16 -7 -35 24 -52 22 -12 28 -11 49 5 16 12 25 28 25 46 0 15 -1
27 -1 26 -1 0 -16 -3 -33 -5z"/>
<path d="M1860 13740 c-12 -8 -9 -10 13 -10 15 0 27 5 27 10 0 13 -20 13 -40
0z"/>
<path d="M1583 13714 c-3 -8 -1 -25 5 -37 10 -20 11 -18 11 16 1 39 -5 48 -16
21z"/>
<path d="M2080 13714 c0 -8 9 -14 19 -14 11 0 23 -4 26 -10 3 -5 1 -10 -5 -10
-6 0 -8 -4 -5 -10 9 -15 45 -12 45 3 0 18 -29 43 -57 50 -16 3 -23 1 -23 -9z"/>
<path d="M1460 13710 c0 -5 5 -10 10 -10 6 0 10 5 10 10 0 6 -4 10 -10 10 -5
0 -10 -4 -10 -10z"/>
<path d="M1926 13685 c-20 -15 -20 -15 0 -15 11 0 25 -5 32 -12 8 -8 15 -8 27
2 13 11 12 14 -11 26 -14 8 -27 14 -28 14 0 0 -10 -7 -20 -15z"/>
<path d="M2244 13675 c-4 -8 -18 -15 -33 -15 -20 0 -23 -2 -11 -10 26 -17 47
-11 52 15 6 28 1 33 -8 10z"/>
<path d="M2315 13681 c-17 -3 -31 -14 -33 -24 -5 -25 21 -21 48 8 13 14 22 24
19 24 -2 -1 -17 -4 -34 -8z"/>
<path d="M1533 13673 c-21 -8 -15 -40 12 -69 14 -15 25 -28 25 -28 0 -1 -28
-1 -62 -1 -42 0 -63 5 -64 13 -1 7 -2 23 -3 37 0 14 -6 25 -12 25 -13 0 -8
-42 6 -52 6 -4 2 -8 -7 -8 -10 0 -18 -4 -18 -10 0 -5 7 -10 15 -10 8 0 15 -6
15 -14 0 -11 -8 -12 -37 -6 -37 9 -57 5 -49 -9 7 -10 116 -34 123 -27 4 3 -4
6 -16 6 -14 0 -21 5 -18 13 5 17 69 16 85 -3 8 -8 11 -9 7 -2 -3 6 -1 12 4 12
6 0 11 -6 11 -12 1 -7 8 -1 16 15 11 20 12 32 4 46 -7 14 -6 21 3 24 9 4 9 7
0 18 -7 7 -13 21 -13 31 0 18 -5 20 -27 11z"/>
<path d="M1280 13663 c0 -7 -7 -13 -15 -13 -9 0 -15 -9 -15 -25 0 -14 5 -25
10 -25 6 0 9 6 8 13 -2 6 5 11 15 9 19 -3 22 15 7 38 -6 10 -10 11 -10 3z"/>
<path d="M1676 13653 c-3 -10 -9 -24 -12 -30 -3 -7 -1 -13 5 -13 6 0 11 7 11
15 0 11 7 14 25 9 26 -7 59 11 49 27 -10 17 -71 10 -78 -8z"/>
<path d="M1620 13650 c0 -5 5 -10 11 -10 5 0 7 5 4 10 -3 6 -8 10 -11 10 -2 0
-4 -4 -4 -10z"/>
<path d="M1270 13580 c0 -5 7 -7 15 -4 8 4 15 8 15 10 0 2 -7 4 -15 4 -8 0
-15 -4 -15 -10z"/>
<path d="M1991 13544 c0 -11 3 -14 6 -6 3 7 2 16 -1 19 -3 4 -6 -2 -5 -13z"/>
<path d="M1297 13543 c-4 -3 -2 -12 3 -18 8 -9 6 -14 -5 -19 -22 -8 -19 -26 5
-26 22 0 26 -10 9 -27 -7 -7 -2 -12 20 -15 25 -4 31 -1 31 14 0 10 -7 18 -15
18 -14 0 -21 30 -16 68 2 13 -21 17 -32 5z"/>
<path d="M1808 13523 c6 -2 18 -2 25 0 6 3 1 5 -13 5 -14 0 -19 -2 -12 -5z"/>
<path d="M1680 13500 c0 -5 5 -10 10 -10 6 0 10 5 10 10 0 6 -4 10 -10 10 -5
0 -10 -4 -10 -10z"/>
<path d="M1825 13500 c3 -5 8 -10 11 -10 2 0 4 5 4 10 0 6 -5 10 -11 10 -5 0
-7 -4 -4 -10z"/>
<path d="M1955 13490 c-3 -5 -1 -10 4 -10 6 0 11 5 11 10 0 6 -2 10 -4 10 -3
0 -8 -4 -11 -10z"/>
<path d="M2015 13430 c3 -5 8 -10 11 -10 2 0 4 5 4 10 0 6 -5 10 -11 10 -5 0
-7 -4 -4 -10z"/>
<path d="M1380 13424 c0 -3 9 -17 20 -31 11 -14 17 -29 14 -34 -3 -5 0 -9 5
-9 25 0 4 63 -24 74 -8 3 -15 3 -15 0z"/>
<path d="M1520 13400 c0 -21 16 -26 39 -11 18 11 5 31 -20 31 -12 0 -19 -7
-19 -20z"/>
<path d="M1455 13370 c3 -5 1 -10 -4 -10 -6 0 -11 -7 -11 -15 0 -11 11 -15 40
-15 42 0 50 11 25 36 -12 12 -15 12 -15 2 0 -8 -3 -9 -8 -3 -9 13 -35 18 -27
5z"/>
<path d="M1335 13360 c-17 -7 -17 -9 -2 -9 9 -1 17 -9 17 -18 0 -15 2 -16 10
-3 12 18 13 40 3 39 -5 0 -17 -4 -28 -9z"/>
<path d="M1375 13290 c-3 -5 1 -10 10 -10 9 0 13 5 10 10 -3 6 -8 10 -10 10
-2 0 -7 -4 -10 -10z"/>
<path d="M1630 13229 c0 -5 5 -7 10 -4 6 3 10 8 10 11 0 2 -4 4 -10 4 -5 0
-10 -5 -10 -11z"/>
<path d="M1719 13209 c-10 -6 -7 -9 14 -9 29 0 35 5 14 13 -8 3 -20 1 -28 -4z"/>
<path d="M1450 13099 c0 -5 5 -7 10 -4 6 3 10 8 10 11 0 2 -4 4 -10 4 -5 0
-10 -5 -10 -11z"/>
<path d="M6840 13063 c0 -3 7 -14 16 -24 25 -28 47 -210 35 -288 -8 -48 -6
-88 5 -165 8 -55 17 -102 19 -104 1 -2 6 15 10 37 4 23 10 41 15 41 23 0 42
245 26 335 -14 81 -36 132 -66 153 -28 21 -60 29 -60 15z"/>
<path d="M6554 11994 c12 -31 18 -94 12 -119 -5 -21 -12 -25 -45 -25 -27 0
-41 5 -45 17 -9 24 -21 6 -35 -52 -12 -48 -12 -50 14 -72 46 -40 178 -24 203
24 17 32 25 149 11 175 -22 44 -40 58 -59 48 -13 -7 -21 -5 -30 5 -16 20 -34
19 -26 -1z m92 -129 c7 -28 0 -55 -16 -55 -5 0 -10 18 -10 40 0 44 16 54 26
15z m-46 -31 c0 0 -5 -15 -11 -32 -15 -45 -39 -49 -71 -12 -16 16 -28 34 -28
38 0 4 25 8 55 8 30 0 55 -1 55 -2z"/>
<path d="M5016 11969 c-35 -27 -33 -36 9 -48 19 -5 46 -18 60 -29 32 -25 54
-22 78 10 25 33 15 63 -25 77 -48 17 -93 13 -122 -10z"/>
<path d="M5292 11238 c-7 -7 -11 -21 -11 -32 1 -21 1 -21 6 -1 3 11 10 26 15
33 13 15 6 16 -10 0z"/>
<path d="M5139 11173 c-13 -16 -12 -17 4 -4 16 13 21 21 13 21 -2 0 -10 -8
-17 -17z"/>
<path d="M6500 11015 c0 -8 44 -45 54 -45 5 0 -1 11 -14 25 -21 23 -40 32 -40
20z"/>
<path d="M6575 10940 c10 -11 20 -20 23 -20 3 0 -3 9 -13 20 -10 11 -20 20
-23 20 -3 0 3 -9 13 -20z"/>
<path d="M5092 10941 c-11 -7 -11 -9 0 -14 9 -3 15 1 15 9 0 8 -1 14 -1 14 -1
0 -7 -4 -14 -9z"/>
<path d="M6655 10820 c3 -5 8 -10 11 -10 2 0 4 5 4 10 0 6 -5 10 -11 10 -5 0
-7 -4 -4 -10z"/>
<path d="M6695 10750 c3 -5 8 -10 11 -10 2 0 4 5 4 10 0 6 -5 10 -11 10 -5 0
-7 -4 -4 -10z"/>
<path d="M6666 10725 c4 -8 10 -15 15 -15 4 0 6 7 3 15 -4 8 -10 15 -15 15 -4
0 -6 -7 -3 -15z"/>
<path d="M7000 10410 c0 -5 5 -10 11 -10 5 0 7 5 4 10 -3 6 -8 10 -11 10 -2 0
-4 -4 -4 -10z"/>
<path d="M5160 10141 c0 -6 5 -13 10 -16 6 -3 10 1 10 9 0 9 -4 16 -10 16 -5
0 -10 -4 -10 -9z"/>
<path d="M5240 10121 c0 -5 9 -7 20 -4 11 3 20 7 20 9 0 2 -9 4 -20 4 -11 0
-20 -4 -20 -9z"/>
<path d="M4671 9026 c-9 -11 -9 -16 1 -22 7 -4 10 -4 6 1 -4 4 -3 14 3 22 6 7
9 13 6 13 -2 0 -10 -6 -16 -14z"/>
<path d="M4653 8993 c4 -3 1 -13 -6 -22 -11 -14 -10 -14 5 -2 16 12 16 31 1
31 -4 0 -3 -3 0 -7z"/>
<path d="M4640 8946 c0 -2 8 -10 18 -17 15 -13 16 -12 3 4 -13 16 -21 21 -21
13z"/>
<path d="M4960 8410 c0 -5 5 -10 11 -10 5 0 7 5 4 10 -3 6 -8 10 -11 10 -2 0
-4 -4 -4 -10z"/>
<path d="M8792 3565 c0 -16 2 -22 5 -12 2 9 2 23 0 30 -3 6 -5 -1 -5 -18z"/>
<path d="M8820 3370 c0 -6 -4 -8 -10 -5 -5 3 -10 1 -10 -4 0 -13 27 -14 35 -2
3 5 1 12 -5 16 -5 3 -10 1 -10 -5z"/>
<path d="M8852 3275 c0 -43 1 -46 15 -32 10 9 12 20 7 29 -5 7 -9 19 -10 26
-5 33 -12 19 -12 -23z"/>
<path d="M8825 3110 c-3 -5 -1 -10 5 -10 6 0 8 -6 4 -12 -4 -7 -3 -9 1 -5 12
10 15 37 5 37 -5 0 -12 -4 -15 -10z"/>
<path d="M8875 3110 c-3 -6 1 -7 9 -4 18 7 21 14 7 14 -6 0 -13 -4 -16 -10z"/>
<path d="M8960 3038 c0 -23 3 -29 9 -19 8 12 4 51 -5 51 -2 0 -4 -15 -4 -32z"/>
<path d="M8845 3039 c-4 -6 -5 -12 -2 -15 2 -3 7 2 10 11 7 17 1 20 -8 4z"/>
<path d="M8952 2790 c0 -14 2 -19 5 -12 2 6 2 18 0 25 -3 6 -5 1 -5 -13z"/>
<path d="M8930 2734 c0 -17 22 -14 28 4 2 7 -3 12 -12 12 -9 0 -16 -7 -16 -16z"/>
<path d="M8998 2713 c7 -3 16 -2 19 1 4 3 -2 6 -13 5 -11 0 -14 -3 -6 -6z"/>
<path d="M9025 2691 c-6 -11 9 -23 19 -14 9 9 7 23 -3 23 -6 0 -12 -4 -16 -9z"/>
<path d="M8970 2680 c-12 -8 -10 -10 8 -10 13 0 20 4 17 10 -7 12 -6 12 -25 0z"/>
<path d="M9056 2615 c4 -8 12 -15 20 -15 8 0 11 6 8 15 -4 8 -12 15 -20 15 -8
0 -11 -6 -8 -15z"/>
</g>
</svg>
